<?xml version="1.0" encoding="UTF-8" standalone="no"?><!DOCTYPE svg PUBLIC "-//W3C//DTD SVG 1.1//EN" "http://www.w3.org/Graphics/SVG/1.1/DTD/svg11.dtd"><svg width="100%" height="100%" viewBox="0 0 296 60" version="1.1" xmlns="http://www.w3.org/2000/svg" xmlns:xlink="http://www.w3.org/1999/xlink" xml:space="preserve" xmlns:serif="http://www.serif.com/" style="fill-rule:evenodd;clip-rule:evenodd;stroke-linejoin:round;stroke-miterlimit:2;"><path d="M7.572,12.768c-1.263,-1.073 -3.156,-0.919 -4.229,0.343c-1.073,1.262 -0.92,3.156 0.343,4.229l3.886,-4.572Zm286.149,13.446c1.523,-0.653 2.228,-2.416 1.575,-3.939c-0.653,-1.523 -2.416,-2.228 -3.939,-1.575l2.364,5.514Zm-274.121,29.663c0.8,1.451 2.624,1.979 4.075,1.18c1.451,-0.8 1.979,-2.625 1.18,-4.076l-5.255,2.896Zm-16.338,-41.939l-2.422,-1.771l-0,0.001l2.422,1.77Zm36.36,-7.788c1.646,-0.189 2.827,-1.677 2.638,-3.323c-0.189,-1.646 -1.676,-2.827 -3.322,-2.638l0.684,5.961Zm-33.993,8.904c-1.943,2.286 -1.941,2.287 -1.939,2.289c0.001,0.002 0.018,0.016 0.027,0.023c0.016,0.014 0.039,0.033 0.068,0.057c0.058,0.049 0.142,0.118 0.25,0.206c0.217,0.176 0.534,0.431 0.951,0.755c0.833,0.648 2.065,1.576 3.69,2.721c3.249,2.291 8.073,5.452 14.429,8.985c12.713,7.067 31.561,15.626 56.208,21.682c49.341,12.124 121.735,14.171 214.408,-25.558l-2.364,-5.514c-91.474,39.214 -162.535,37.059 -210.612,25.246c-24.062,-5.913 -42.414,-14.256 -54.725,-21.1c-6.155,-3.421 -10.798,-6.467 -13.888,-8.645c-1.544,-1.089 -2.7,-1.96 -3.462,-2.553c-0.381,-0.297 -0.664,-0.523 -0.847,-0.672c-0.091,-0.075 -0.158,-0.13 -0.2,-0.165c-0.021,-0.018 -0.051,-0.043 -0.053,-0.044c-0,-0 0,-0 -0,-0c0.001,0 0.002,0.001 -1.941,2.287Zm16.598,39.375c2.628,-1.448 2.628,-1.448 2.628,-1.448c-0.001,-0 -0.01,-0.017 -0.015,-0.026c-0.009,-0.018 -0.024,-0.044 -0.044,-0.08c-0.038,-0.07 -0.096,-0.176 -0.172,-0.314c-0.151,-0.276 -0.373,-0.682 -0.656,-1.2c-0.564,-1.036 -1.369,-2.52 -2.329,-4.31c-1.921,-3.581 -4.46,-8.376 -6.936,-13.248c-2.482,-4.883 -4.878,-9.795 -6.528,-13.624c-0.83,-1.927 -1.436,-3.497 -1.774,-4.618c-0.173,-0.572 -0.242,-0.917 -0.26,-1.078c-0.009,-0.081 0.006,-0.02 -0.011,0.132c-0.014,0.122 -0.076,0.587 -0.446,1.093l-4.844,-3.54c-0.49,0.669 -0.627,1.366 -0.673,1.785c-0.05,0.448 -0.026,0.87 0.013,1.21c0.077,0.681 0.261,1.418 0.477,2.132c0.437,1.45 1.15,3.267 2.008,5.259c1.727,4.008 4.192,9.055 6.69,13.968c2.503,4.925 5.064,9.763 6.997,13.366c0.967,1.802 1.778,3.298 2.348,4.344c0.284,0.522 0.509,0.933 0.663,1.213c0.076,0.14 0.135,0.248 0.175,0.32c0.02,0.037 0.036,0.064 0.046,0.083c0.005,0.01 0.014,0.026 0.015,0.027c-0,0.001 0,0.001 0,0.001c0.001,0.001 0.001,0.001 2.628,-1.447Zm-16.543,-38.72c-0.244,0.333 -0.44,0.4 -0.179,0.24c0.183,-0.112 0.486,-0.272 0.935,-0.476c0.894,-0.407 2.146,-0.889 3.691,-1.425c3.076,-1.068 7.083,-2.271 11.196,-3.418c4.105,-1.146 8.272,-2.223 11.649,-3.041c3.47,-0.841 5.891,-1.353 6.646,-1.439l-0.684,-5.961c-1.202,0.138 -4.023,0.757 -7.374,1.568c-3.444,0.834 -7.677,1.929 -11.849,3.093c-4.163,1.161 -8.306,2.403 -11.552,3.529c-1.616,0.561 -3.067,1.114 -4.206,1.632c-0.567,0.257 -1.113,0.532 -1.585,0.821c-0.393,0.24 -1.049,0.675 -1.532,1.335l4.844,3.542Z" style="fill:#1a1e22;fill-rule:nonzero;"/></svg>