<?xml version="1.0" encoding="UTF-8" standalone="no"?><!DOCTYPE svg PUBLIC "-//W3C//DTD SVG 1.1//EN" "http://www.w3.org/Graphics/SVG/1.1/DTD/svg11.dtd"><svg width="100%" height="100%" viewBox="0 0 4365 1753" version="1.1" xmlns="http://www.w3.org/2000/svg" xmlns:xlink="http://www.w3.org/1999/xlink" xml:space="preserve" xmlns:serif="http://www.serif.com/" style="fill-rule:evenodd;clip-rule:evenodd;stroke-linejoin:round;stroke-miterlimit:2;"><rect id="hot-wash-logo-crna-pozadina-172x100cm" serif:id="hot wash logo crna pozadina 172x100cm" x="0" y="0" width="4364.26" height="1752.18" style="fill:none;"/><g><path d="M428.096,643.82c-52.201,10.447 -104.142,22.324 -155.528,36.282c-25.669,7.079 -51.279,14.383 -76.594,22.655c-25.314,8.249 -50.534,16.936 -75.034,27.419c24.287,-10.98 49.353,-20.162 74.526,-28.931c25.185,-8.746 50.653,-16.7 76.275,-24.11c51.268,-14.737 103.114,-27.406 155.268,-38.645c52.201,-11.062 104.721,-20.493 157.407,-28.967c52.78,-7.942 105.714,-14.914 158.79,-20.256c106.116,-11.168 212.527,-19.063 319.009,-25.149c105.762,-5.945 211.523,-10.779 317.497,-13.024c50.96,-34.793 103.02,-67.399 155.977,-98.765c53.643,-31.637 108.208,-61.786 164.002,-89.641c55.782,-27.832 112.722,-53.596 171.412,-75.212c29.309,-10.896 59.091,-20.658 89.428,-28.694c30.302,-8.084 61.171,-14.643 92.549,-18.354c124.115,-13.898 248.785,-16.687 373.22,-16.25c124.457,1.217 248.892,6.24 372.912,17.349c62.022,5.307 123.926,12.374 185.558,21.592c30.846,4.373 61.538,10.046 92.194,15.801l45.713,9.951c15.198,3.439 30.267,7.351 45.418,11.015c60.391,15.233 120.321,32.003 179.838,50.026c59.575,17.834 118.856,36.566 177.971,55.759c59.138,19.121 118.099,38.752 177.06,58.287c29.487,9.738 58.914,19.701 88.46,29.215c29.498,9.513 59.126,19.24 88.967,26.508c14.844,3.971 30.208,4.089 45.642,4.668l23.2,-0.212l23.223,-0.922c30.963,-1.608 61.903,-4.16 92.796,-7.198c61.774,-6.299 123.465,-13.673 184.967,-22.466c-61.336,9.915 -122.838,18.85 -184.6,25.917c-30.881,3.51 -61.833,6.524 -92.892,8.592l-23.317,1.277l-23.388,0.567c-15.529,-0.331 -31.555,-0.26 -46.895,-4.101c-30.621,-6.973 -60.238,-16.25 -89.984,-25.35c-29.723,-9.124 -59.339,-18.531 -88.92,-27.998c-59.163,-18.991 -118.266,-38.09 -177.534,-56.656c-59.233,-18.649 -118.608,-36.814 -178.231,-54.069c-59.564,-17.443 -119.47,-33.611 -179.696,-48.23c-15.092,-3.498 -30.125,-7.268 -45.24,-10.542l-45.43,-9.466c-30.42,-5.626 -60.852,-11.157 -91.532,-15.411c-61.265,-8.97 -122.898,-15.837 -184.695,-20.93c-123.548,-10.696 -247.628,-15.328 -371.648,-16.168c-123.985,-0.212 -248.159,3.522 -371.164,16.593c-30.349,3.51 -60.426,9.786 -90.149,17.621c-29.735,7.788 -59.091,17.302 -88.046,27.974c-57.98,21.155 -114.519,46.517 -169.97,73.982c-55.463,27.489 -109.815,57.307 -163.28,88.625c-53.383,31.389 -106.14,64.22 -157.23,98.954l-1.915,1.3l-2.257,0.047c-106.411,1.998 -212.953,5.366 -319.329,10.554c-106.388,5.129 -212.716,12.055 -318.702,22.23c-53.017,4.893 -105.856,11.358 -158.613,18.378c-52.673,7.681 -105.217,16.309 -157.466,26.579Zm3393.45,-93.388c-57.885,-6.795 -116.055,-11.31 -174.33,-14.04c-58.288,-2.411 -116.682,-2.494 -175.017,-0.614c-58.334,2.009 -116.563,6.665 -174.496,13.13c-57.921,6.641 -115.688,14.512 -173.078,24.499c-114.838,19.464 -228.765,44.153 -340.979,74.868c56.94,-11.901 113.927,-23.282 171.187,-33.209c57.176,-10.305 114.507,-19.63 171.931,-28.104c57.449,-8.332 114.992,-15.86 172.7,-21.497c28.825,-3.096 57.72,-5.366 86.592,-7.67l43.361,-2.636c14.454,-0.886 28.943,-1.17 43.409,-1.808c115.771,-4.42 231.803,-0.035 347.314,10.684c115.535,10.731 230.609,27.406 345.565,45.228c-56.81,-12.515 -113.963,-23.423 -171.258,-33.729c-57.354,-9.904 -114.991,-18.519 -172.901,-25.102Zm-875.081,-3.675c93.045,-30.42 184.625,-64.575 275.661,-100.349l9.159,-3.605l-7.032,-6.7c-20.907,-19.914 -42.652,-38.504 -65.579,-55.924c-11.511,-8.628 -23.353,-16.877 -35.691,-24.464c-12.327,-7.54 -25.256,-14.525 -39.438,-19.11l-5.283,-1.761l-5.306,-1.312l-10.601,-2.576c-7.091,-1.265 -14.17,-2.789 -21.273,-3.841c-14.194,-2.234 -28.411,-3.936 -42.628,-5.531c-28.435,-2.978 -56.905,-5.011 -85.375,-6.76c-56.94,-3.392 -113.892,-5.661 -170.845,-7.848c-56.94,-2.233 -113.904,-3.994 -170.856,-5.838l170.656,10.093c56.869,3.368 113.75,6.831 170.489,11.393c28.352,2.387 56.692,4.963 84.891,8.19c14.075,1.761 28.127,3.628 42.049,6.004c6.973,1.122 13.816,2.694 20.729,4.018l10.128,2.6l5.059,1.312l4.833,1.69c12.894,4.325 25.209,11.121 37.039,18.578c11.83,7.493 23.293,15.683 34.473,24.286c19.595,15.293 38.398,31.827 56.385,48.975c-42.439,16.073 -85.138,31.649 -127.944,46.777c-46.032,16.12 -92.04,32.311 -138.439,47.154c-46.375,14.88 -92.997,29.121 -140.081,40.714c-11.783,2.73 -23.542,5.862 -35.384,7.883l-17.739,3.404c-5.898,0.898 -11.783,1.465 -17.669,2.221l-8.828,1.076l-9.064,0.39l-18.141,0.756c-12.043,0.615 -24.334,0.686 -36.483,1.04c-97.512,2.281 -195.202,3.144 -292.832,4.668l-292.939,4.468l-292.95,4.503l-292.939,6.228c-97.642,2.304 -195.296,4.573 -292.915,7.965c-97.607,3.652 -195.261,6.666 -292.726,13.225c195.226,-6.453 390.546,-7.316 585.83,-9.845l292.951,-2.647l292.962,-3.262c195.332,-2.186 390.581,-3.569 586.019,-8.757c12.243,-0.414 24.381,-0.52 36.719,-1.194l18.448,-0.851l9.218,-0.437l9.337,-1.158c6.216,-0.816 12.492,-1.466 18.649,-2.423l18.224,-3.569c12.232,-2.151 24.074,-5.366 36.057,-8.19c47.699,-12.007 94.475,-26.52 141.015,-41.659Zm-308.881,-5.508c-8.568,0.284 -17.148,0.556 -25.716,0.91c-34.758,1.005 -69.527,1.95 -104.308,2.636l-208.698,4.101l-810.743,13.496c61.75,-36.778 124.328,-72.351 187.567,-106.565c35.148,-19.063 70.579,-37.57 106.376,-55.333c35.797,-17.739 71.938,-34.828 108.751,-50.192c36.802,-15.198 74.254,-29.711 113.018,-37.57c39.13,-6.914 78.97,-11.558 118.762,-15.104c79.678,-6.913 159.759,-9.549 239.815,-9.324c-80.045,-2.518 -160.231,-1.218 -240.229,4.148c-40.005,2.884 -79.915,6.464 -119.695,13.071c-39.898,7.623 -77.729,21.816 -115.003,36.684c-37.263,15.032 -73.746,31.779 -109.898,49.152c-36.14,17.408 -71.902,35.561 -107.357,54.257c-70.886,37.511 -140.601,76.996 -209.537,118.088l-20.28,12.09l23.66,-0.307c139.183,-1.785 278.366,-3.274 417.538,-5.838l417.503,-8.569c69.586,-1.524 139.159,-3.521 208.733,-5.897c34.781,-1.099 69.574,-2.446 104.367,-3.865c17.397,-0.638 34.805,-1.713 52.201,-2.54c8.675,-0.331 17.456,-1.147 26.201,-1.856l13.13,-1.087c4.373,-0.591 8.734,-1.265 13.048,-2.009c34.521,-6.193 68.309,-14.619 102.015,-23.495c33.67,-8.923 67.186,-18.377 100.608,-28.127c33.411,-9.774 66.738,-19.843 99.947,-30.267c16.605,-5.2 33.162,-10.577 49.672,-16.108l24.689,-8.486l12.255,-4.49c3.983,-1.667 8.296,-2.896 11.818,-5.425c-3.581,2.434 -7.906,3.545 -11.936,5.105l-12.362,4.172l-24.877,7.848l-50.003,14.926c-33.387,9.785 -66.868,19.216 -100.432,28.328c-33.563,9.1 -67.222,17.905 -100.986,26.166c-33.777,8.095 -67.613,16.368 -101.696,21.994c-21.781,2.954 -43.941,4.03 -66.182,4.833l32.275,-211.534l-44.011,211.983Zm783.372,-114.01c-32.749,-9.313 -65.521,-18.531 -98.434,-27.253c-32.879,-8.84 -65.923,-17.148 -99.108,-24.913c32.252,11.027 64.669,21.509 97.228,31.46c32.536,10.069 65.202,19.642 97.903,29.12c32.748,9.325 65.52,18.543 98.434,27.265c32.878,8.84 65.922,17.137 99.119,24.901c-32.252,-11.038 -64.657,-21.533 -97.228,-31.472c-32.536,-10.057 -65.213,-19.642 -97.914,-29.108Zm-2794.53,314.436c-35.916,1.501 -71.69,7.788 -105.632,19.453c-33.977,11.475 -66.063,28.387 -94.262,50.014c30.716,-17.845 63.358,-31.554 96.992,-41.316c33.682,-9.608 68.416,-15.187 103.327,-16.428c34.911,-1.335 69.988,1.572 104.308,8.628c34.285,7.185 67.884,18.283 100.006,33.469c-29.9,-19.181 -63.18,-33.528 -97.938,-42.392c-34.734,-9.076 -70.886,-12.598 -106.801,-11.428Zm3009.49,-11.736c-25.822,-2.6 -51.811,-3.297 -77.752,-2.529c-51.858,2.127 -103.504,11.086 -152.679,27.525c-49.2,16.25 -95.858,40.064 -137.316,70.567c43.975,-26.733 91.201,-47.333 140.046,-61.869c48.903,-14.395 99.509,-22.655 150.363,-24.511c50.866,-1.891 101.968,2.446 151.817,13.142c49.826,10.802 98.481,27.631 144.561,50.547c-43.858,-26.922 -92.194,-47.002 -142.493,-59.458c-25.102,-6.382 -50.747,-10.684 -76.547,-13.414Zm-1796.03,-216.711c-30.61,7.009 -61.916,11.665 -93.459,14.395c15.848,0.378 31.708,-0.355 47.545,-1.536c15.848,-1.135 31.661,-3.038 47.355,-5.862c15.719,-2.778 31.307,-6.559 46.576,-11.807c15.21,-5.306 30.243,-12.196 43.326,-22.856l5.708,-4.657l-6.382,-3.923c-19.642,-12.102 -40.241,-21.817 -61.939,-29.581c-10.908,-3.652 -22.088,-6.76 -33.682,-8.498c-11.535,-1.749 -23.637,-2.292 -35.585,0.662c-11.428,2.813 -22.076,6.701 -32.654,10.861c-10.553,4.172 -20.977,8.545 -31.247,13.237c-10.317,4.597 -20.493,9.478 -30.586,14.548c-10.104,5.023 -20.185,10.081 -30.053,15.565l31.649,-11.878l31.661,-11.664c21.06,-7.517 42.368,-15.518 63.511,-20.34c10.081,-2.151 20.906,-1.418 31.543,0.237c10.672,1.702 21.249,4.739 31.625,8.343c18.295,6.229 36.129,14.572 53.194,23.791c-10.01,7.185 -21.497,12.763 -33.292,17.467c-14.453,5.637 -29.569,9.821 -44.814,13.496Zm203.971,229.522c-114.85,-0.933 -229.7,-0.886 -344.537,-1.347c-114.85,0.496 -229.7,0.402 -344.537,1.371l-172.275,1.631c-57.425,0.969 -114.849,1.536 -172.274,2.86c57.425,1.323 114.849,1.891 172.274,2.86l172.275,1.631c114.849,0.969 229.687,0.874 344.537,1.371c114.849,-0.461 229.699,-0.414 344.537,-1.348l172.274,-1.631c57.425,-0.98 114.85,-1.548 172.274,-2.871c-57.424,-1.336 -114.849,-1.903 -172.274,-2.872l-172.274,-1.655Z"/></g><g transform="matrix(700,0,0,700,240.521,1374.11)"><path d="M0.123,0.006c-0.01,0 -0.018,-0.002 -0.023,-0.008c-0.006,-0.006 -0.008,-0.014 -0.008,-0.024l-0,-0.653c-0,-0.011 0.002,-0.019 0.008,-0.024c0.005,-0.006 0.013,-0.008 0.022,-0.008c0.01,-0 0.018,0.002 0.023,0.008c0.006,0.005 0.008,0.013 0.008,0.024l0,0.294l0.45,0l-0,-0.294c-0,-0.011 0.002,-0.019 0.008,-0.024c0.005,-0.006 0.013,-0.008 0.023,-0.008c0.009,-0 0.017,0.002 0.022,0.008c0.006,0.005 0.008,0.013 0.008,0.024l0,0.653c0,0.01 -0.002,0.018 -0.008,0.024c-0.005,0.006 -0.013,0.008 -0.022,0.008c-0.01,0 -0.018,-0.002 -0.023,-0.008c-0.006,-0.006 -0.008,-0.014 -0.008,-0.024l-0,-0.304l-0.45,-0l0,0.304c0,0.01 -0.002,0.018 -0.007,0.024c-0.005,0.006 -0.013,0.008 -0.023,0.008Z" style="fill-rule:nonzero;"/></g><g transform="matrix(700,0,0,700,874.745,1374.11)"><path d="M0.273,0.008c-0.045,0 -0.085,-0.01 -0.118,-0.031c-0.034,-0.02 -0.06,-0.049 -0.078,-0.087c-0.018,-0.037 -0.027,-0.082 -0.027,-0.133c-0,-0.038 0.005,-0.073 0.015,-0.103c0.011,-0.031 0.026,-0.057 0.045,-0.079c0.02,-0.023 0.044,-0.039 0.071,-0.051c0.028,-0.012 0.058,-0.018 0.092,-0.018c0.046,0 0.085,0.011 0.119,0.031c0.033,0.021 0.059,0.05 0.078,0.088c0.018,0.037 0.027,0.081 0.027,0.132c0,0.039 -0.005,0.073 -0.015,0.104c-0.011,0.031 -0.026,0.057 -0.046,0.079c-0.019,0.022 -0.043,0.039 -0.07,0.051c-0.027,0.012 -0.058,0.017 -0.093,0.017Zm0,-0.051c0.033,-0 0.062,-0.008 0.086,-0.024c0.024,-0.015 0.043,-0.038 0.056,-0.068c0.014,-0.03 0.02,-0.066 0.02,-0.108c0,-0.063 -0.014,-0.112 -0.044,-0.147c-0.029,-0.035 -0.068,-0.052 -0.118,-0.052c-0.033,0 -0.061,0.008 -0.085,0.024c-0.025,0.015 -0.044,0.038 -0.057,0.067c-0.013,0.03 -0.019,0.066 -0.019,0.108c-0,0.064 0.014,0.113 0.044,0.148c0.029,0.034 0.068,0.052 0.117,0.052Z" style="fill-rule:nonzero;"/></g><g transform="matrix(700,0,0,700,1358.93,1374.11)"><path d="M0.263,0.008c-0.036,0 -0.066,-0.006 -0.09,-0.02c-0.024,-0.013 -0.042,-0.032 -0.054,-0.058c-0.012,-0.025 -0.018,-0.056 -0.018,-0.092l0,-0.274l-0.074,0c-0.009,0 -0.016,-0.002 -0.021,-0.007c-0.005,-0.004 -0.008,-0.01 -0.008,-0.017c0,-0.008 0.003,-0.014 0.008,-0.019c0.005,-0.004 0.012,-0.006 0.021,-0.006l0.074,-0l0,-0.125c0,-0.01 0.003,-0.018 0.008,-0.024c0.006,-0.005 0.013,-0.007 0.023,-0.007c0.01,-0 0.017,0.002 0.022,0.007c0.006,0.006 0.008,0.014 0.008,0.024l0,0.125l0.135,-0c0.009,-0 0.016,0.002 0.021,0.006c0.005,0.005 0.007,0.011 0.007,0.019c0,0.007 -0.002,0.013 -0.007,0.017c-0.005,0.005 -0.012,0.007 -0.021,0.007l-0.135,0l0,0.266c0,0.04 0.008,0.071 0.025,0.093c0.017,0.021 0.044,0.032 0.083,0.032c0.013,-0 0.024,-0.002 0.033,-0.004c0.009,-0.003 0.017,-0.005 0.023,-0.005c0.005,0 0.009,0.002 0.012,0.006c0.004,0.004 0.006,0.01 0.006,0.019c-0,0.005 -0.001,0.011 -0.004,0.016c-0.002,0.005 -0.006,0.009 -0.012,0.01c-0.008,0.003 -0.017,0.006 -0.03,0.008c-0.013,0.002 -0.025,0.003 -0.035,0.003Z" style="fill-rule:nonzero;"/></g><g transform="matrix(700,0,0,700,1698.19,1374.11)"></g><g transform="matrix(700,0,0,700,1979.39,1374.11)"><path d="M0.308,0.006c-0.009,0 -0.017,-0.002 -0.022,-0.007c-0.006,-0.005 -0.011,-0.013 -0.015,-0.023l-0.226,-0.65c-0.004,-0.011 -0.003,-0.019 0.002,-0.027c0.006,-0.007 0.014,-0.01 0.025,-0.01c0.009,-0 0.016,0.002 0.021,0.006c0.005,0.004 0.009,0.011 0.013,0.021l0.219,0.64l-0.032,0l0.221,-0.637c0.004,-0.01 0.009,-0.018 0.014,-0.023c0.005,-0.005 0.012,-0.007 0.021,-0.007c0.008,-0 0.015,0.002 0.02,0.007c0.005,0.005 0.01,0.013 0.013,0.023l0.22,0.637l-0.03,0l0.221,-0.64c0.003,-0.009 0.007,-0.016 0.013,-0.021c0.005,-0.004 0.012,-0.006 0.021,-0.006c0.011,-0 0.018,0.003 0.023,0.01c0.005,0.007 0.006,0.016 0.001,0.027l-0.226,0.65c-0.004,0.01 -0.008,0.018 -0.014,0.023c-0.005,0.005 -0.013,0.007 -0.023,0.007c-0.01,0 -0.017,-0.002 -0.023,-0.007c-0.005,-0.005 -0.01,-0.013 -0.014,-0.023l-0.213,-0.617l0.02,-0l-0.214,0.617c-0.004,0.01 -0.008,0.018 -0.014,0.023c-0.005,0.005 -0.012,0.007 -0.022,0.007Z" style="fill-rule:nonzero;"/></g><g transform="matrix(700,0,0,700,2812.42,1374.11)"><path d="M0.23,0.008c-0.032,0 -0.061,-0.006 -0.087,-0.019c-0.026,-0.013 -0.047,-0.03 -0.061,-0.052c-0.015,-0.022 -0.023,-0.047 -0.023,-0.074c0,-0.036 0.009,-0.065 0.027,-0.085c0.018,-0.021 0.048,-0.035 0.091,-0.044c0.043,-0.008 0.101,-0.012 0.176,-0.012l0.043,-0l-0,0.045l-0.042,-0c-0.06,-0 -0.107,0.002 -0.141,0.008c-0.033,0.005 -0.057,0.014 -0.07,0.027c-0.014,0.014 -0.02,0.032 -0.02,0.056c-0,0.03 0.01,0.054 0.031,0.073c0.02,0.019 0.049,0.028 0.084,0.028c0.029,0 0.054,-0.006 0.076,-0.02c0.021,-0.014 0.038,-0.033 0.051,-0.057c0.012,-0.024 0.019,-0.051 0.019,-0.082l-0,-0.114c-0,-0.045 -0.009,-0.077 -0.027,-0.098c-0.018,-0.02 -0.046,-0.03 -0.086,-0.03c-0.025,-0 -0.05,0.003 -0.074,0.01c-0.023,0.007 -0.048,0.017 -0.075,0.032c-0.007,0.004 -0.014,0.005 -0.019,0.004c-0.006,-0.001 -0.01,-0.004 -0.014,-0.008c-0.003,-0.004 -0.005,-0.009 -0.006,-0.015c-0,-0.005 0.001,-0.011 0.003,-0.016c0.003,-0.005 0.007,-0.01 0.014,-0.013c0.028,-0.016 0.056,-0.027 0.085,-0.035c0.029,-0.007 0.058,-0.011 0.085,-0.011c0.039,0 0.072,0.007 0.097,0.02c0.026,0.013 0.045,0.033 0.058,0.06c0.012,0.027 0.018,0.061 0.018,0.103l0,0.286c0,0.01 -0.002,0.017 -0.007,0.023c-0.005,0.006 -0.012,0.008 -0.021,0.008c-0.01,0 -0.017,-0.002 -0.022,-0.008c-0.005,-0.006 -0.008,-0.013 -0.008,-0.023l-0,-0.092l0.01,-0c-0.006,0.026 -0.017,0.048 -0.032,0.067c-0.016,0.019 -0.035,0.033 -0.057,0.043c-0.023,0.01 -0.048,0.015 -0.076,0.015Z" style="fill-rule:nonzero;"/></g><g transform="matrix(700,0,0,700,3282.5,1374.11)"><path d="M0.238,0.008c-0.03,0 -0.06,-0.004 -0.09,-0.012c-0.029,-0.008 -0.057,-0.021 -0.084,-0.041c-0.005,-0.003 -0.008,-0.008 -0.01,-0.013c-0.002,-0.005 -0.002,-0.01 -0.001,-0.015c0.001,-0.005 0.003,-0.01 0.007,-0.014c0.003,-0.003 0.008,-0.006 0.013,-0.006c0.005,-0.001 0.011,0.001 0.017,0.005c0.026,0.017 0.051,0.029 0.076,0.036c0.025,0.007 0.05,0.01 0.074,0.01c0.041,0 0.072,-0.007 0.093,-0.023c0.022,-0.015 0.032,-0.036 0.032,-0.062c0,-0.021 -0.007,-0.038 -0.02,-0.05c-0.014,-0.012 -0.037,-0.021 -0.067,-0.028l-0.087,-0.02c-0.042,-0.009 -0.073,-0.025 -0.093,-0.046c-0.02,-0.021 -0.03,-0.048 -0.03,-0.081c-0,-0.029 0.008,-0.053 0.023,-0.075c0.015,-0.021 0.036,-0.038 0.063,-0.049c0.028,-0.012 0.06,-0.018 0.096,-0.018c0.029,0 0.057,0.005 0.084,0.013c0.026,0.009 0.05,0.022 0.07,0.039c0.005,0.005 0.009,0.01 0.01,0.015c0.002,0.005 0.002,0.011 0,0.016c-0.001,0.005 -0.004,0.009 -0.008,0.012c-0.004,0.003 -0.008,0.005 -0.014,0.005c-0.005,0 -0.011,-0.002 -0.017,-0.006c-0.019,-0.015 -0.04,-0.026 -0.061,-0.033c-0.021,-0.007 -0.043,-0.01 -0.065,-0.01c-0.039,-0 -0.069,0.008 -0.09,0.024c-0.021,0.016 -0.031,0.038 -0.031,0.065c-0,0.02 0.006,0.037 0.019,0.05c0.013,0.013 0.034,0.023 0.062,0.029l0.087,0.02c0.043,0.01 0.075,0.025 0.097,0.045c0.021,0.019 0.032,0.046 0.032,0.079c0,0.043 -0.017,0.077 -0.051,0.102c-0.033,0.025 -0.079,0.037 -0.136,0.037Z" style="fill-rule:nonzero;"/></g><g transform="matrix(700,0,0,700,3722.09,1374.11)"><path d="M0.111,0.006c-0.01,0 -0.017,-0.002 -0.023,-0.008c-0.005,-0.006 -0.008,-0.013 -0.008,-0.023l0,-0.655c0,-0.01 0.003,-0.018 0.008,-0.024c0.006,-0.005 0.013,-0.007 0.023,-0.007c0.01,-0 0.017,0.002 0.022,0.007c0.006,0.006 0.008,0.014 0.008,0.024l0,0.308l-0.012,0c0.014,-0.04 0.037,-0.071 0.069,-0.091c0.032,-0.02 0.069,-0.031 0.111,-0.031c0.039,0 0.071,0.007 0.097,0.021c0.025,0.014 0.044,0.035 0.057,0.063c0.013,0.028 0.019,0.063 0.019,0.104l0,0.281c0,0.01 -0.003,0.017 -0.008,0.023c-0.005,0.006 -0.013,0.008 -0.022,0.008c-0.01,0 -0.017,-0.002 -0.023,-0.008c-0.005,-0.006 -0.008,-0.013 -0.008,-0.023l0,-0.276c0,-0.049 -0.009,-0.084 -0.029,-0.106c-0.019,-0.023 -0.05,-0.034 -0.092,-0.034c-0.048,-0 -0.086,0.015 -0.115,0.044c-0.029,0.03 -0.044,0.07 -0.044,0.12l0,0.252c0,0.021 -0.01,0.031 -0.03,0.031Z" style="fill-rule:nonzero;"/></g><g transform="matrix(700,0,0,700,4114.31,1374.11)"></g></svg>