<?xml version="1.0" encoding="UTF-8" standalone="no"?><!DOCTYPE svg PUBLIC "-//W3C//DTD SVG 1.1//EN" "http://www.w3.org/Graphics/SVG/1.1/DTD/svg11.dtd"><svg width="100%" height="100%" viewBox="0 0 4365 1753" version="1.1" xmlns="http://www.w3.org/2000/svg" xmlns:xlink="http://www.w3.org/1999/xlink" xml:space="preserve" xmlns:serif="http://www.serif.com/" style="fill-rule:evenodd;clip-rule:evenodd;stroke-linejoin:round;stroke-miterlimit:2;"><rect id="hot-wash-logo-crna-pozadina-172x100cm" serif:id="hot wash logo crna pozadina 172x100cm" x="0" y="0" width="4364.26" height="1752.18" style="fill:none;"/><g><path d="M428.096,643.82c-52.201,10.447 -104.142,22.324 -155.528,36.282c-25.669,7.079 -51.279,14.383 -76.594,22.655c-25.314,8.249 -50.534,16.936 -75.034,27.419c24.287,-10.98 49.353,-20.162 74.526,-28.931c25.185,-8.746 50.653,-16.7 76.275,-24.11c51.268,-14.737 103.114,-27.406 155.268,-38.645c52.201,-11.062 104.721,-20.493 157.407,-28.967c52.78,-7.942 105.714,-14.914 158.79,-20.256c106.116,-11.168 212.527,-19.063 319.009,-25.149c105.762,-5.945 211.523,-10.779 317.497,-13.024c50.96,-34.793 103.02,-67.399 155.977,-98.765c53.643,-31.637 108.208,-61.786 164.002,-89.641c55.782,-27.832 112.722,-53.596 171.412,-75.212c29.309,-10.896 59.091,-20.658 89.428,-28.694c30.302,-8.084 61.171,-14.643 92.549,-18.354c124.115,-13.898 248.785,-16.687 373.22,-16.25c124.457,1.217 248.892,6.24 372.912,17.349c62.022,5.307 123.926,12.374 185.558,21.592c30.846,4.373 61.538,10.046 92.194,15.801l45.713,9.951c15.198,3.439 30.267,7.351 45.418,11.015c60.391,15.233 120.321,32.003 179.838,50.026c59.575,17.834 118.856,36.566 177.971,55.759c59.138,19.121 118.099,38.752 177.06,58.287c29.487,9.738 58.914,19.701 88.46,29.215c29.498,9.513 59.126,19.24 88.967,26.508c14.844,3.971 30.208,4.089 45.642,4.668l23.2,-0.212l23.223,-0.922c30.963,-1.608 61.903,-4.16 92.796,-7.198c61.774,-6.299 123.465,-13.673 184.967,-22.466c-61.336,9.915 -122.838,18.85 -184.6,25.917c-30.881,3.51 -61.833,6.524 -92.892,8.592l-23.317,1.277l-23.388,0.567c-15.529,-0.331 -31.555,-0.26 -46.895,-4.101c-30.621,-6.973 -60.238,-16.25 -89.984,-25.35c-29.723,-9.124 -59.339,-18.531 -88.92,-27.998c-59.163,-18.991 -118.266,-38.09 -177.534,-56.656c-59.233,-18.649 -118.608,-36.814 -178.231,-54.069c-59.564,-17.443 -119.47,-33.611 -179.696,-48.23c-15.092,-3.498 -30.125,-7.268 -45.24,-10.542l-45.43,-9.466c-30.42,-5.626 -60.852,-11.157 -91.532,-15.411c-61.265,-8.97 -122.898,-15.837 -184.695,-20.93c-123.548,-10.696 -247.628,-15.328 -371.648,-16.168c-123.985,-0.212 -248.159,3.522 -371.164,16.593c-30.349,3.51 -60.426,9.786 -90.149,17.621c-29.735,7.788 -59.091,17.302 -88.046,27.974c-57.98,21.155 -114.519,46.517 -169.97,73.982c-55.463,27.489 -109.815,57.307 -163.28,88.625c-53.383,31.389 -106.14,64.22 -157.23,98.954l-1.915,1.3l-2.257,0.047c-106.411,1.998 -212.953,5.366 -319.329,10.554c-106.388,5.129 -212.716,12.055 -318.702,22.23c-53.017,4.893 -105.856,11.358 -158.613,18.378c-52.673,7.681 -105.217,16.309 -157.466,26.579Zm3393.45,-93.388c-57.885,-6.795 -116.055,-11.31 -174.33,-14.04c-58.288,-2.411 -116.682,-2.494 -175.017,-0.614c-58.334,2.009 -116.563,6.665 -174.496,13.13c-57.921,6.641 -115.688,14.512 -173.078,24.499c-114.838,19.464 -228.765,44.153 -340.979,74.868c56.94,-11.901 113.927,-23.282 171.187,-33.209c57.176,-10.305 114.507,-19.63 171.931,-28.104c57.449,-8.332 114.992,-15.86 172.7,-21.497c28.825,-3.096 57.72,-5.366 86.592,-7.67l43.361,-2.636c14.454,-0.886 28.943,-1.17 43.409,-1.808c115.771,-4.42 231.803,-0.035 347.314,10.684c115.535,10.731 230.609,27.406 345.565,45.228c-56.81,-12.515 -113.963,-23.423 -171.258,-33.729c-57.354,-9.904 -114.991,-18.519 -172.901,-25.102Zm-875.081,-3.675c93.045,-30.42 184.625,-64.575 275.661,-100.349l9.159,-3.605l-7.032,-6.7c-20.907,-19.914 -42.652,-38.504 -65.579,-55.924c-11.511,-8.628 -23.353,-16.877 -35.691,-24.464c-12.327,-7.54 -25.256,-14.525 -39.438,-19.11l-5.283,-1.761l-5.306,-1.312l-10.601,-2.576c-7.091,-1.265 -14.17,-2.789 -21.273,-3.841c-14.194,-2.234 -28.411,-3.936 -42.628,-5.531c-28.435,-2.978 -56.905,-5.011 -85.375,-6.76c-56.94,-3.392 -113.892,-5.661 -170.845,-7.848c-56.94,-2.233 -113.904,-3.994 -170.856,-5.838l170.656,10.093c56.869,3.368 113.75,6.831 170.489,11.393c28.352,2.387 56.692,4.963 84.891,8.19c14.075,1.761 28.127,3.628 42.049,6.004c6.973,1.122 13.816,2.694 20.729,4.018l10.128,2.6l5.059,1.312l4.833,1.69c12.894,4.325 25.209,11.121 37.039,18.578c11.83,7.493 23.293,15.683 34.473,24.286c19.595,15.293 38.398,31.827 56.385,48.975c-42.439,16.073 -85.138,31.649 -127.944,46.777c-46.032,16.12 -92.04,32.311 -138.439,47.154c-46.375,14.88 -92.997,29.121 -140.081,40.714c-11.783,2.73 -23.542,5.862 -35.384,7.883l-17.739,3.404c-5.898,0.898 -11.783,1.465 -17.669,2.221l-8.828,1.076l-9.064,0.39l-18.141,0.756c-12.043,0.615 -24.334,0.686 -36.483,1.04c-97.512,2.281 -195.202,3.144 -292.832,4.668l-292.939,4.468l-292.95,4.503l-292.939,6.228c-97.642,2.304 -195.296,4.573 -292.915,7.965c-97.607,3.652 -195.261,6.666 -292.726,13.225c195.226,-6.453 390.546,-7.316 585.83,-9.845l292.951,-2.647l292.962,-3.262c195.332,-2.186 390.581,-3.569 586.019,-8.757c12.243,-0.414 24.381,-0.52 36.719,-1.194l18.448,-0.851l9.218,-0.437l9.337,-1.158c6.216,-0.816 12.492,-1.466 18.649,-2.423l18.224,-3.569c12.232,-2.151 24.074,-5.366 36.057,-8.19c47.699,-12.007 94.475,-26.52 141.015,-41.659Zm-308.881,-5.508c-8.568,0.284 -17.148,0.556 -25.716,0.91c-34.758,1.005 -69.527,1.95 -104.308,2.636l-208.698,4.101l-810.743,13.496c61.75,-36.778 124.328,-72.351 187.567,-106.565c35.148,-19.063 70.579,-37.57 106.376,-55.333c35.797,-17.739 71.938,-34.828 108.751,-50.192c36.802,-15.198 74.254,-29.711 113.018,-37.57c39.13,-6.914 78.97,-11.558 118.762,-15.104c79.678,-6.913 159.759,-9.549 239.815,-9.324c-80.045,-2.518 -160.231,-1.218 -240.229,4.148c-40.005,2.884 -79.915,6.464 -119.695,13.071c-39.898,7.623 -77.729,21.816 -115.003,36.684c-37.263,15.032 -73.746,31.779 -109.898,49.152c-36.14,17.408 -71.902,35.561 -107.357,54.257c-70.886,37.511 -140.601,76.996 -209.537,118.088l-20.28,12.09l23.66,-0.307c139.183,-1.785 278.366,-3.274 417.538,-5.838l417.503,-8.569c69.586,-1.524 139.159,-3.521 208.733,-5.897c34.781,-1.099 69.574,-2.446 104.367,-3.865c17.397,-0.638 34.805,-1.713 52.201,-2.54c8.675,-0.331 17.456,-1.147 26.201,-1.856l13.13,-1.087c4.373,-0.591 8.734,-1.265 13.048,-2.009c34.521,-6.193 68.309,-14.619 102.015,-23.495c33.67,-8.923 67.186,-18.377 100.608,-28.127c33.411,-9.774 66.738,-19.843 99.947,-30.267c16.605,-5.2 33.162,-10.577 49.672,-16.108l24.689,-8.486l12.255,-4.49c3.983,-1.667 8.296,-2.896 11.818,-5.425c-3.581,2.434 -7.906,3.545 -11.936,5.105l-12.362,4.172l-24.877,7.848l-50.003,14.926c-33.387,9.785 -66.868,19.216 -100.432,28.328c-33.563,9.1 -67.222,17.905 -100.986,26.166c-33.777,8.095 -67.613,16.368 -101.696,21.994c-21.781,2.954 -43.941,4.03 -66.182,4.833l32.275,-211.534l-44.011,211.983Zm783.372,-114.01c-32.749,-9.313 -65.521,-18.531 -98.434,-27.253c-32.879,-8.84 -65.923,-17.148 -99.108,-24.913c32.252,11.027 64.669,21.509 97.228,31.46c32.536,10.069 65.202,19.642 97.903,29.12c32.748,9.325 65.52,18.543 98.434,27.265c32.878,8.84 65.922,17.137 99.119,24.901c-32.252,-11.038 -64.657,-21.533 -97.228,-31.472c-32.536,-10.057 -65.213,-19.642 -97.914,-29.108Zm-2794.53,314.436c-35.916,1.501 -71.69,7.788 -105.632,19.453c-33.977,11.475 -66.063,28.387 -94.262,50.014c30.716,-17.845 63.358,-31.554 96.992,-41.316c33.682,-9.608 68.416,-15.187 103.327,-16.428c34.911,-1.335 69.988,1.572 104.308,8.628c34.285,7.185 67.884,18.283 100.006,33.469c-29.9,-19.181 -63.18,-33.528 -97.938,-42.392c-34.734,-9.076 -70.886,-12.598 -106.801,-11.428Zm3009.49,-11.736c-25.822,-2.6 -51.811,-3.297 -77.752,-2.529c-51.858,2.127 -103.504,11.086 -152.679,27.525c-49.2,16.25 -95.858,40.064 -137.316,70.567c43.975,-26.733 91.201,-47.333 140.046,-61.869c48.903,-14.395 99.509,-22.655 150.363,-24.511c50.866,-1.891 101.968,2.446 151.817,13.142c49.826,10.802 98.481,27.631 144.561,50.547c-43.858,-26.922 -92.194,-47.002 -142.493,-59.458c-25.102,-6.382 -50.747,-10.684 -76.547,-13.414Zm-1796.03,-216.711c-30.61,7.009 -61.916,11.665 -93.459,14.395c15.848,0.378 31.708,-0.355 47.545,-1.536c15.848,-1.135 31.661,-3.038 47.355,-5.862c15.719,-2.778 31.307,-6.559 46.576,-11.807c15.21,-5.306 30.243,-12.196 43.326,-22.856l5.708,-4.657l-6.382,-3.923c-19.642,-12.102 -40.241,-21.817 -61.939,-29.581c-10.908,-3.652 -22.088,-6.76 -33.682,-8.498c-11.535,-1.749 -23.637,-2.292 -35.585,0.662c-11.428,2.813 -22.076,6.701 -32.654,10.861c-10.553,4.172 -20.977,8.545 -31.247,13.237c-10.317,4.597 -20.493,9.478 -30.586,14.548c-10.104,5.023 -20.185,10.081 -30.053,15.565l31.649,-11.878l31.661,-11.664c21.06,-7.517 42.368,-15.518 63.511,-20.34c10.081,-2.151 20.906,-1.418 31.543,0.237c10.672,1.702 21.249,4.739 31.625,8.343c18.295,6.229 36.129,14.572 53.194,23.791c-10.01,7.185 -21.497,12.763 -33.292,17.467c-14.453,5.637 -29.569,9.821 -44.814,13.496Zm203.971,229.522c-114.85,-0.933 -229.7,-0.886 -344.537,-1.347c-114.85,0.496 -229.7,0.402 -344.537,1.371l-172.275,1.631c-57.425,0.969 -114.849,1.536 -172.274,2.86c57.425,1.323 114.849,1.891 172.274,2.86l172.275,1.631c114.849,0.969 229.687,0.874 344.537,1.371c114.849,-0.461 229.699,-0.414 344.537,-1.348l172.274,-1.631c57.425,-0.98 114.85,-1.548 172.274,-2.871c-57.424,-1.336 -114.849,-1.903 -172.274,-2.872l-172.274,-1.655Z" style="fill:url(#_Linear1);"/></g><g><path d="M407.11,1411.6l-165.506,0l0,-3.598l15.831,0c9.595,0 15.112,-3.838 16.551,-11.513c1.439,-7.676 2.159,-16.791 2.159,-27.345l-0,-394.336c-0,-10.554 -0.72,-19.549 -2.159,-26.984c-1.439,-7.436 -6.956,-11.154 -16.551,-11.154l-15.831,-0l0,-4.318l165.506,0l0,4.318l-15.831,-0c-9.114,-0 -14.511,3.718 -16.19,11.154c-1.68,7.435 -2.519,16.43 -2.519,26.984l-0,164.067l302.228,-0l0,-164.067c0,-10.554 -0.839,-19.549 -2.518,-26.984c-1.679,-7.436 -7.076,-11.154 -16.191,-11.154l-15.831,-0l-0,-4.318l165.506,0l-0,4.318l-15.831,-0c-9.595,-0 -15.112,3.718 -16.551,11.154c-1.439,7.435 -2.159,16.43 -2.159,26.984l0,394.336c0,10.554 0.72,19.669 2.159,27.345c1.439,7.675 6.956,11.513 16.551,11.513l15.831,0l-0,3.598l-165.506,0l-0,-3.598l15.831,0c9.115,0 14.512,-3.838 16.191,-11.513c1.679,-7.676 2.518,-16.791 2.518,-27.345l0,-225.232l-302.228,0l-0,225.232c-0,10.554 0.839,19.669 2.519,27.345c1.679,7.675 7.076,11.513 16.19,11.513l15.831,0l0,3.598Z" style="fill:url(#_Linear2);"/><path d="M1084.96,1045.33c27.824,0 54.209,4.438 79.155,13.313c24.946,8.874 46.534,21.467 64.763,37.778c18.23,16.311 32.742,35.98 43.536,59.007c10.794,23.026 16.191,48.452 16.191,76.276c-0,27.824 -5.397,53.25 -16.191,76.277c-10.794,23.027 -25.306,42.696 -43.536,59.006c-18.229,16.311 -39.817,28.904 -64.763,37.779c-24.946,8.875 -51.331,13.312 -79.155,13.312c-28.304,0 -54.809,-4.437 -79.515,-13.312c-24.706,-8.875 -46.173,-21.468 -64.403,-37.779c-18.23,-16.31 -32.741,-35.979 -43.535,-59.006c-10.794,-23.027 -16.191,-48.453 -16.191,-76.277c-0,-27.824 5.397,-53.25 16.191,-76.276c10.794,-23.027 25.305,-42.696 43.535,-59.007c18.23,-16.311 39.697,-28.904 64.403,-37.778c24.706,-8.875 51.211,-13.313 79.515,-13.313Zm0,366.992c15.831,-0 30.583,-4.318 44.255,-12.953c13.672,-8.635 25.546,-20.868 35.62,-36.699c10.074,-15.831 18.11,-34.9 24.106,-57.208c5.997,-22.307 8.995,-46.893 8.995,-73.758c0,-26.865 -2.998,-51.451 -8.995,-73.758c-5.996,-22.307 -14.032,-41.376 -24.106,-57.207c-10.074,-15.831 -21.948,-28.064 -35.62,-36.7c-13.672,-8.635 -28.424,-12.952 -44.255,-12.952c-15.831,-0 -30.582,4.317 -44.255,12.952c-13.672,8.636 -25.545,20.869 -35.619,36.7c-10.075,15.831 -18.11,34.9 -24.107,57.207c-5.996,22.307 -8.995,46.893 -8.995,73.758c0,26.865 2.999,51.451 8.995,73.758c5.997,22.308 14.032,41.377 24.107,57.208c10.074,15.831 21.947,28.064 35.619,36.699c13.673,8.635 28.424,12.953 44.255,12.953Z" style="fill:url(#_Linear3);"/><path d="M1484.34,1335.32c0,19.189 2.999,33.941 8.995,44.255c5.997,10.314 13.912,17.15 23.747,20.509c9.834,3.358 20.868,3.717 33.101,1.079c12.233,-2.639 24.826,-7.316 37.778,-14.032l2.879,5.037c-16.311,11.514 -35.74,19.429 -58.287,23.747c-22.547,4.317 -44.135,3.598 -64.763,-2.159c-20.629,-5.757 -38.139,-16.911 -52.53,-33.461c-14.392,-16.551 -21.588,-39.938 -21.588,-70.16l-0,-251.857l-47.493,-0l-0,-6.477l28.783,0c7.196,0 12.833,-2.158 16.911,-6.476c4.078,-4.317 7.076,-11.273 8.995,-20.868c1.919,-9.595 3.118,-21.948 3.598,-37.059c0.479,-15.111 0.719,-33.461 0.719,-55.049l88.51,0c0,21.108 -2.758,39.098 -8.275,53.97c-5.517,14.871 -12.353,27.224 -20.509,37.059c-8.155,9.834 -16.67,17.03 -25.545,21.587c-8.875,4.558 -16.911,6.836 -24.106,6.836l159.029,0l0,6.477l-89.949,-0l0,277.042Z" style="fill:url(#_Linear4);"/><path d="M2659.43,932.349l165.506,0l-0,3.598c-25.906,0 -48.453,6.237 -67.642,18.71c-19.189,12.473 -34.78,29.503 -46.773,51.091l-221.634,405.849l-9.355,0c-1.919,-2.878 -3.598,-5.757 -5.037,-8.635c-1.439,-2.878 -3.118,-5.997 -5.037,-9.355c-5.277,-10.074 -10.794,-20.268 -16.551,-30.582c-5.757,-10.315 -11.274,-20.509 -16.551,-30.583c-8.155,-14.872 -16.19,-29.623 -24.106,-44.255c-7.915,-14.632 -15.951,-29.143 -24.106,-43.535c-6.716,-12.473 -13.552,-24.826 -20.509,-37.059c-6.956,-12.233 -13.792,-24.586 -20.508,-37.059l-131.685,241.063l-9.355,0c-1.919,-2.878 -3.598,-5.757 -5.037,-8.635c-1.439,-2.878 -3.118,-5.997 -5.037,-9.355l-33.101,-61.165c-8.156,-14.872 -16.191,-29.623 -24.107,-44.255c-7.915,-14.632 -15.95,-29.143 -24.106,-43.535c-9.115,-16.791 -18.11,-33.221 -26.984,-49.292c-8.875,-16.071 -17.63,-32.262 -26.266,-48.573c-8.155,-15.351 -16.43,-30.342 -24.825,-44.974c-8.396,-14.632 -16.671,-29.623 -24.826,-44.974c-5.757,-11.034 -11.634,-21.828 -17.63,-32.382c-5.997,-10.554 -11.874,-21.348 -17.63,-32.382c-2.399,-4.797 -5.037,-10.434 -7.916,-16.91c-2.878,-6.476 -6.116,-12.593 -9.714,-18.35c-3.598,-5.756 -7.796,-10.674 -12.593,-14.751c-4.797,-4.078 -10.314,-6.117 -16.551,-6.117l-18.709,0l-0,-3.598l165.506,0l-0,3.598c-5.757,0.96 -10.794,2.399 -15.112,4.318c-3.837,1.439 -6.956,3.118 -9.354,5.037c-2.399,1.919 -2.639,4.317 -0.72,7.196c5.277,9.594 11.873,21.708 19.789,36.339c7.915,14.632 15.711,28.904 23.387,42.816c8.635,15.831 17.75,32.621 27.344,50.371l2.878,5.757l129.527,236.745l89.229,-161.908c-1.439,-2.398 -2.998,-5.037 -4.677,-7.915c-1.679,-2.878 -3.238,-5.517 -4.678,-7.916c-8.155,-15.351 -16.31,-30.342 -24.466,-44.974c-8.155,-14.632 -16.31,-29.623 -24.466,-44.974c-5.756,-11.034 -11.633,-21.828 -17.63,-32.382c-5.996,-10.554 -11.873,-21.348 -17.63,-32.382c-2.398,-4.797 -5.037,-10.434 -7.915,-16.91c-2.879,-6.476 -6.117,-12.593 -9.715,-18.35c-3.598,-5.756 -7.795,-10.674 -12.593,-14.751c-4.797,-4.078 -10.314,-6.117 -16.55,-6.117l-18.709,0l-0,-3.598l165.505,0l0,3.598c-5.756,0.96 -10.793,2.399 -15.111,4.318c-3.838,1.439 -6.956,3.118 -9.355,5.037c-2.398,1.919 -2.638,4.317 -0.719,7.196c5.277,9.594 11.873,21.708 19.789,36.339c7.915,14.632 15.711,28.904 23.386,42.816c8.635,15.831 17.75,32.621 27.345,50.371l2.878,5.757l129.527,236.745l130.246,-236.745l2.878,-5.757l41.736,-76.276c4.318,-7.676 6.716,-15.711 7.196,-24.107c0.48,-8.395 -0.959,-15.951 -4.317,-22.667c-3.359,-6.716 -8.396,-12.233 -15.112,-16.55c-6.716,-4.318 -14.871,-6.477 -24.466,-6.477l-6.476,0l-0,-3.598Z" style="fill:url(#_Linear5);"/><path d="M2801.91,1115.85c17.27,-19.189 38.138,-34.3 62.604,-45.334c24.466,-11.034 50.012,-18.23 76.637,-21.588c26.625,-3.358 53.129,-3.238 79.514,0.36c26.385,3.598 50.012,10.674 70.88,21.228c20.868,10.554 37.779,24.466 50.731,41.736c12.953,17.27 19.429,37.419 19.429,60.446l0,239.624l-17.27,-0l-72.679,-87.791c-8.155,23.987 -21.467,43.176 -39.937,57.568c-18.469,14.392 -39.218,24.586 -62.245,30.582c-23.026,5.997 -46.893,7.676 -71.599,5.038c-24.706,-2.639 -47.253,-9.235 -67.641,-19.789c-20.389,-10.554 -37.179,-24.706 -50.372,-42.456c-13.192,-17.75 -19.789,-39.098 -19.789,-64.044c0,-32.621 7.796,-57.207 23.387,-73.758c15.591,-16.55 37.059,-28.184 64.404,-34.9c27.344,-6.716 59.726,-10.194 97.144,-10.434c37.419,-0.24 77.716,-0.36 120.892,-0.36c-5.277,-23.986 -14.152,-43.415 -26.625,-58.287c-12.473,-14.871 -26.865,-25.905 -43.176,-33.101c-16.31,-7.196 -33.7,-11.034 -52.17,-11.513c-18.47,-0.48 -36.339,1.439 -53.61,5.756c-17.27,4.318 -32.981,10.794 -47.133,19.429c-14.152,8.635 -25.066,18.47 -32.741,29.504l-8.635,-7.916Zm269.127,94.986c-0,-11.993 -0.96,-22.547 -2.879,-31.662c-28.303,0 -55.048,-0.36 -80.234,-1.079c-25.186,-0.72 -47.253,1.559 -66.202,6.836c-18.95,5.277 -33.941,15.111 -44.975,29.503c-11.034,14.392 -16.55,36.459 -16.55,66.202c-0,27.345 5.157,49.772 15.471,67.282c10.314,17.51 23.387,30.343 39.218,38.498c15.831,8.156 32.741,11.994 50.731,11.514c17.99,-0.48 34.9,-5.277 50.731,-14.392c15.831,-9.115 28.903,-22.307 39.218,-39.578c10.314,-17.27 15.471,-38.378 15.471,-63.324l-0,-69.8Z" style="fill:url(#_Linear6);"/><path d="M3332.97,1106.49c0,15.831 6.476,28.664 19.429,38.498c12.953,9.835 29.263,18.47 48.932,25.906c19.669,7.436 40.777,14.631 63.324,21.587c22.547,6.957 43.655,15.112 63.324,24.467c19.669,9.354 35.98,21.108 48.932,35.26c12.953,14.152 19.429,32.261 19.429,54.329c0,16.31 -3.358,30.462 -10.074,42.456c-6.716,11.993 -15.351,22.187 -25.905,30.582c-10.554,8.395 -22.427,15.112 -35.62,20.149c-13.192,5.037 -26.385,8.995 -39.577,11.873c-13.193,2.878 -25.666,4.797 -37.419,5.757c-11.754,0.959 -21.468,1.439 -29.144,1.439c-28.304,-0 -52.05,-2.759 -71.239,-8.275c-19.189,-5.517 -34.541,-10.195 -46.054,-14.032c-11.513,-3.838 -19.669,-5.157 -24.466,-3.958c-4.797,1.199 -7.196,8.275 -7.196,21.228l-7.196,-0l-14.392,-114.415l7.196,-0c3.358,24.466 11.993,44.734 25.905,60.805c13.913,16.071 30.583,28.304 50.012,36.699c19.429,8.396 40.057,13.193 61.885,14.392c21.827,1.2 41.976,-0.959 60.446,-6.476c18.469,-5.517 33.7,-14.152 45.694,-25.905c11.993,-11.754 17.989,-26.265 17.989,-43.536c0,-16.79 -6.476,-30.702 -19.429,-41.736c-12.952,-11.034 -29.023,-20.628 -48.212,-28.784c-19.189,-8.155 -40.177,-15.831 -62.964,-23.027c-22.787,-7.195 -43.776,-15.471 -62.965,-24.825c-19.189,-9.355 -35.26,-20.749 -48.212,-34.181c-12.953,-13.432 -19.429,-30.463 -19.429,-51.091c-0,-18.23 5.277,-33.101 15.831,-44.615c10.554,-11.513 23.506,-20.508 38.858,-26.984c15.351,-6.477 31.662,-10.914 48.932,-13.313c17.27,-2.398 32.621,-3.598 46.054,-3.598c27.824,0 50.971,3.238 69.44,9.715c18.47,6.476 33.221,11.993 44.255,16.55c11.034,4.558 18.829,5.997 23.387,4.318c4.557,-1.679 6.836,-10.434 6.836,-26.265l7.196,-0l14.392,115.134l-7.196,0c-2.879,-23.026 -10.674,-42.216 -23.387,-57.567c-12.713,-15.351 -27.584,-27.224 -44.615,-35.62c-17.03,-8.395 -35.14,-13.552 -54.329,-15.471c-19.189,-1.919 -36.819,-1.079 -52.89,2.519c-16.071,3.598 -29.383,9.714 -39.937,18.349c-10.554,8.635 -15.831,19.189 -15.831,31.662Z" style="fill:url(#_Linear7);"/><path d="M4095.01,1369.14c0,10.554 0.84,19.669 2.519,27.345c1.679,7.675 7.076,11.513 16.19,11.513l15.831,0l0,3.598l-159.749,0l0,-3.598l15.831,0c9.595,0 15.112,-3.838 16.551,-11.513c1.439,-7.676 2.159,-16.791 2.159,-27.345l-0,-179.178c-0,-28.304 -5.157,-51.691 -15.472,-70.16c-10.314,-18.47 -23.146,-32.262 -38.498,-41.377c-15.351,-9.115 -32.022,-13.432 -50.011,-12.952c-17.99,0.479 -34.661,5.636 -50.012,15.471c-15.351,9.834 -28.184,24.346 -38.498,43.535c-10.314,19.189 -15.471,43.176 -15.471,71.959l-0,172.702c-0,10.554 0.839,19.669 2.518,27.345c1.679,7.675 7.076,11.513 16.191,11.513l16.551,0l-0,3.598l-159.75,0l0,-3.598l15.831,0c9.115,0 14.512,-3.838 16.191,-11.513c1.679,-7.676 2.519,-16.791 2.519,-27.345l-0,-392.897c-0,-10.074 -3.358,-18.709 -10.074,-25.905c-6.717,-7.196 -14.872,-11.513 -24.467,-12.953l0,-4.317l124.49,-33.101l-0,233.867c6.236,-20.628 17.99,-37.899 35.26,-51.811c17.27,-13.912 36.939,-24.106 59.006,-30.582c22.068,-6.477 45.095,-8.755 69.081,-6.836c23.986,1.918 46.054,8.395 66.202,19.428c20.149,11.034 36.699,26.865 49.652,47.493c12.953,20.629 19.429,46.774 19.429,78.436l0,179.178Z" style="fill:url(#_Linear8);"/></g><defs><linearGradient id="_Linear1" x1="0" y1="0" x2="1" y2="0" gradientUnits="userSpaceOnUse" gradientTransform="matrix(4129.28,0,0,601.366,120.94,524.819)"><stop offset="0" style="stop-color:#6d6d6d;stop-opacity:1"/><stop offset="1" style="stop-color:#fff;stop-opacity:1"/></linearGradient><linearGradient id="_Linear2" x1="0" y1="0" x2="1" y2="0" gradientUnits="userSpaceOnUse" gradientTransform="matrix(3887.95,0,0,518.955,241.604,1159.45)"><stop offset="0" style="stop-color:#666;stop-opacity:1"/><stop offset="0.52" style="stop-color:#bababa;stop-opacity:1"/><stop offset="1" style="stop-color:#d8d8d8;stop-opacity:1"/></linearGradient><linearGradient id="_Linear3" x1="0" y1="0" x2="1" y2="0" gradientUnits="userSpaceOnUse" gradientTransform="matrix(3887.95,0,0,518.955,241.604,1159.45)"><stop offset="0" style="stop-color:#666;stop-opacity:1"/><stop offset="0.52" style="stop-color:#bababa;stop-opacity:1"/><stop offset="1" style="stop-color:#d8d8d8;stop-opacity:1"/></linearGradient><linearGradient id="_Linear4" x1="0" y1="0" x2="1" y2="0" gradientUnits="userSpaceOnUse" gradientTransform="matrix(3887.95,0,0,518.955,241.604,1159.45)"><stop offset="0" style="stop-color:#666;stop-opacity:1"/><stop offset="0.52" style="stop-color:#bababa;stop-opacity:1"/><stop offset="1" style="stop-color:#d8d8d8;stop-opacity:1"/></linearGradient><linearGradient id="_Linear5" x1="0" y1="0" x2="1" y2="0" gradientUnits="userSpaceOnUse" gradientTransform="matrix(3887.95,0,0,518.955,241.604,1159.45)"><stop offset="0" style="stop-color:#666;stop-opacity:1"/><stop offset="0.52" style="stop-color:#bababa;stop-opacity:1"/><stop offset="1" style="stop-color:#d8d8d8;stop-opacity:1"/></linearGradient><linearGradient id="_Linear6" x1="0" y1="0" x2="1" y2="0" gradientUnits="userSpaceOnUse" gradientTransform="matrix(3887.95,0,0,518.955,241.604,1159.45)"><stop offset="0" style="stop-color:#666;stop-opacity:1"/><stop offset="0.52" style="stop-color:#bababa;stop-opacity:1"/><stop offset="1" style="stop-color:#d8d8d8;stop-opacity:1"/></linearGradient><linearGradient id="_Linear7" x1="0" y1="0" x2="1" y2="0" gradientUnits="userSpaceOnUse" gradientTransform="matrix(3887.95,0,0,518.955,241.604,1159.45)"><stop offset="0" style="stop-color:#666;stop-opacity:1"/><stop offset="0.52" style="stop-color:#bababa;stop-opacity:1"/><stop offset="1" style="stop-color:#d8d8d8;stop-opacity:1"/></linearGradient><linearGradient id="_Linear8" x1="0" y1="0" x2="1" y2="0" gradientUnits="userSpaceOnUse" gradientTransform="matrix(3887.95,0,0,518.955,241.604,1159.45)"><stop offset="0" style="stop-color:#666;stop-opacity:1"/><stop offset="0.52" style="stop-color:#bababa;stop-opacity:1"/><stop offset="1" style="stop-color:#d8d8d8;stop-opacity:1"/></linearGradient></defs></svg>