<?xml version="1.0" encoding="UTF-8" standalone="no"?><!DOCTYPE svg PUBLIC "-//W3C//DTD SVG 1.1//EN" "http://www.w3.org/Graphics/SVG/1.1/DTD/svg11.dtd"><svg width="100%" height="100%" viewBox="0 0 4876 1844" version="1.1" xmlns="http://www.w3.org/2000/svg" xmlns:xlink="http://www.w3.org/1999/xlink" xml:space="preserve" xmlns:serif="http://www.serif.com/" style="fill-rule:evenodd;clip-rule:evenodd;stroke-linejoin:round;stroke-miterlimit:2;"><rect id="hot-wash-logo-crna-pozadina-172x100cm" serif:id="hot wash logo crna pozadina 172x100cm" x="0" y="0" width="4875.59" height="1843.84" style="fill:none;"/><g><path d="M465.618,692.529c-58.578,11.723 -116.864,25.051 -174.527,40.714c-28.805,7.944 -57.543,16.14 -85.951,25.423c-28.407,9.257 -56.708,19.004 -84.2,30.768c27.254,-12.321 55.382,-22.625 83.63,-32.466c28.261,-9.813 56.841,-18.739 85.593,-27.054c57.53,-16.538 115.71,-30.754 174.235,-43.367c58.578,-12.413 117.514,-22.996 176.636,-32.505c59.228,-8.912 118.628,-16.736 178.187,-22.731c119.079,-12.532 238.49,-21.391 357.98,-28.221c118.681,-6.671 237.362,-12.095 356.282,-14.615c57.186,-39.043 115.605,-75.632 175.031,-110.83c60.196,-35.502 121.427,-69.333 184.036,-100.592c62.597,-31.231 126.493,-60.142 192.352,-84.399c32.889,-12.227 66.309,-23.181 100.353,-32.2c34.003,-9.071 68.644,-16.431 103.854,-20.595c139.277,-15.596 279.177,-18.726 418.812,-18.235c139.662,1.365 279.297,7.002 418.468,19.468c69.598,5.955 139.064,13.885 208.225,24.23c34.614,4.907 69.055,11.272 103.457,17.731l51.297,11.166c17.055,3.86 33.964,8.249 50.966,12.361c67.768,17.094 135.019,35.913 201.807,56.137c66.853,20.013 133.375,41.033 199.711,62.57c66.363,21.458 132.527,43.486 198.691,65.408c33.088,10.928 66.11,22.108 99.265,32.784c33.102,10.675 66.35,21.59 99.836,29.746c16.657,4.456 33.898,4.589 51.218,5.239l26.033,-0.239l26.06,-1.035c34.746,-1.803 69.466,-4.668 104.133,-8.076c69.32,-7.069 138.547,-15.344 207.562,-25.211c-68.829,11.127 -137.844,21.153 -207.151,29.083c-34.654,3.939 -69.387,7.321 -104.239,9.642l-26.166,1.432l-26.245,0.637c-17.427,-0.372 -35.41,-0.292 -52.624,-4.602c-34.362,-7.825 -67.596,-18.235 -100.976,-28.447c-33.354,-10.238 -66.588,-20.795 -99.783,-31.418c-66.389,-21.312 -132.712,-42.743 -199.221,-63.577c-66.469,-20.928 -133.097,-41.311 -200.003,-60.674c-66.841,-19.574 -134.065,-37.717 -201.648,-54.122c-16.936,-3.925 -33.805,-8.156 -50.767,-11.829l-50.979,-10.623c-34.136,-6.313 -68.286,-12.519 -102.714,-17.294c-68.75,-10.066 -137.911,-17.771 -207.257,-23.487c-138.641,-12.002 -277.878,-17.2 -417.049,-18.142c-139.131,-0.239 -278.474,3.952 -416.504,18.62c-34.057,3.939 -67.809,10.981 -101.162,19.773c-33.367,8.74 -66.31,19.416 -98.802,31.391c-65.063,23.739 -128.508,52.199 -190.733,83.02c-62.238,30.847 -123.23,64.307 -183.227,99.451c-59.904,35.224 -119.106,72.066 -176.437,111.043l-2.148,1.458l-2.534,0.054c-119.41,2.241 -238.966,6.02 -358.337,11.842c-119.384,5.756 -238.702,13.528 -357.635,24.946c-59.493,5.491 -118.787,12.745 -177.989,20.622c-59.108,8.621 -118.071,18.302 -176.702,29.827Zm3807.99,-104.796c-64.957,-7.626 -130.232,-12.692 -195.627,-15.755c-65.408,-2.706 -130.935,-2.799 -196.396,-0.69c-65.461,2.254 -130.803,7.48 -195.813,14.734c-64.996,7.453 -129.821,16.286 -194.221,27.492c-128.866,21.842 -256.711,49.547 -382.633,84.014c63.896,-13.354 127.845,-26.126 192.099,-37.266c64.161,-11.564 128.495,-22.028 192.935,-31.537c64.466,-9.349 129.038,-17.797 193.796,-24.123c32.346,-3.475 64.772,-6.021 97.171,-8.607l48.658,-2.958c16.219,-0.994 32.478,-1.312 48.711,-2.029c129.914,-4.96 260.12,-0.039 389.742,11.989c129.649,12.042 258.78,30.755 387.779,50.754c-63.75,-14.045 -127.885,-26.285 -192.179,-37.85c-64.36,-11.113 -129.038,-20.781 -194.022,-28.168Zm-981.981,-4.125c104.412,-34.136 207.178,-72.463 309.335,-112.607l10.278,-4.045l-7.891,-7.519c-23.46,-22.347 -47.862,-43.208 -73.59,-62.756c-12.917,-9.681 -26.206,-18.938 -40.051,-27.452c-13.832,-8.461 -28.341,-16.299 -44.255,-21.445l-5.928,-1.976l-5.955,-1.472l-11.896,-2.891c-7.957,-1.419 -15.901,-3.13 -23.872,-4.31c-15.927,-2.506 -31.881,-4.416 -47.835,-6.207c-31.909,-3.342 -63.857,-5.623 -95.805,-7.585c-63.896,-3.807 -127.805,-6.353 -191.714,-8.806c-63.896,-2.507 -127.819,-4.483 -191.728,-6.552l191.502,11.326c63.817,3.78 127.646,7.665 191.317,12.784c31.815,2.679 63.618,5.571 95.261,9.191c15.795,1.976 31.563,4.071 47.186,6.737c7.824,1.26 15.503,3.024 23.261,4.509l11.366,2.918l5.676,1.472l5.424,1.896c14.469,4.854 28.288,12.48 41.563,20.848c13.275,8.408 26.139,17.599 38.685,27.253c21.988,17.161 43.088,35.715 63.273,54.958c-47.624,18.036 -95.54,35.515 -143.574,52.491c-51.656,18.089 -103.284,36.258 -155.351,52.915c-52.04,16.697 -104.358,32.677 -157.193,45.687c-13.223,3.064 -26.418,6.578 -39.707,8.846l-19.906,3.819c-6.618,1.008 -13.222,1.645 -19.827,2.494l-9.906,1.206l-10.172,0.438l-20.357,0.849c-13.514,0.689 -27.307,0.769 -40.94,1.167c-109.424,2.559 -219.047,3.528 -328.604,5.238l-328.724,5.013l-328.737,5.053l-328.724,6.989c-109.57,2.586 -219.154,5.133 -328.697,8.939c-109.531,4.098 -219.114,7.48 -328.485,14.84c219.074,-7.241 438.254,-8.209 657.394,-11.047l328.737,-2.971l328.751,-3.66c219.193,-2.454 438.294,-4.005 657.606,-9.827c13.74,-0.465 27.36,-0.584 41.205,-1.34l20.702,-0.955l10.344,-0.49l10.477,-1.3c6.976,-0.915 14.018,-1.645 20.928,-2.719l20.45,-4.005c13.726,-2.414 27.014,-6.021 40.462,-9.19c53.525,-13.475 106.016,-29.76 158.241,-46.749Zm-346.614,-6.18c-9.615,0.318 -19.243,0.624 -28.858,1.021c-39.003,1.128 -78.02,2.189 -117.05,2.958l-234.192,4.602l-909.783,15.145c69.294,-41.271 139.516,-81.19 210.48,-119.583c39.441,-21.392 79.201,-42.16 119.371,-62.093c40.171,-19.906 80.726,-39.083 122.037,-56.323c41.297,-17.055 83.324,-33.341 126.823,-42.16c43.911,-7.758 88.617,-12.97 133.27,-16.949c89.412,-7.758 179.275,-10.715 269.111,-10.463c-89.823,-2.825 -179.805,-1.366 -269.575,4.655c-44.892,3.236 -89.678,7.254 -134.317,14.667c-44.773,8.554 -87.224,24.482 -129.052,41.166c-41.815,16.869 -82.755,35.661 -123.323,55.156c-40.555,19.535 -80.686,39.905 -120.472,60.886c-79.545,42.093 -157.777,86.401 -235.134,132.513l-22.757,13.567l26.55,-0.345c156.186,-2.003 312.372,-3.674 468.544,-6.551l468.505,-9.615c78.086,-1.711 156.16,-3.952 234.233,-6.618c39.029,-1.233 78.073,-2.745 117.116,-4.337c19.521,-0.716 39.056,-1.923 58.578,-2.851c9.734,-0.371 19.588,-1.286 29.402,-2.082l14.734,-1.22c4.906,-0.663 9.8,-1.419 14.641,-2.255c38.738,-6.949 76.654,-16.405 114.477,-26.364c37.783,-10.013 75.394,-20.623 112.899,-31.564c37.491,-10.968 74.89,-22.267 112.156,-33.964c18.633,-5.835 37.213,-11.869 55.74,-18.076l27.704,-9.522l13.753,-5.039c4.469,-1.87 9.31,-3.25 13.262,-6.088c-4.019,2.732 -8.872,3.979 -13.395,5.73l-13.872,4.681l-27.916,8.806l-56.111,16.75c-37.465,10.981 -75.037,21.564 -112.7,31.789c-37.664,10.211 -75.434,20.092 -113.324,29.362c-37.902,9.084 -75.871,18.367 -114.119,24.68c-24.442,3.316 -49.308,4.522 -74.267,5.424l36.219,-237.375l-49.388,237.879Zm879.068,-127.938c-36.749,-10.45 -73.524,-20.795 -110.459,-30.582c-36.894,-9.92 -73.975,-19.243 -111.214,-27.956c36.192,12.373 72.569,24.137 109.106,35.303c36.51,11.299 73.166,22.042 109.862,32.678c36.749,10.463 73.524,20.808 110.458,30.595c36.895,9.92 73.976,19.23 111.228,27.943c-36.191,-12.387 -72.556,-24.163 -109.106,-35.317c-36.51,-11.286 -73.179,-22.041 -109.875,-32.664Zm-3135.91,352.847c-40.303,1.685 -80.447,8.74 -118.535,21.83c-38.128,12.877 -74.134,31.855 -105.777,56.124c34.467,-20.025 71.097,-35.409 108.84,-46.364c37.797,-10.782 76.774,-17.041 115.95,-18.434c39.175,-1.498 78.537,1.764 117.05,9.682c38.472,8.063 76.176,20.516 112.222,37.557c-33.553,-21.524 -70.898,-37.624 -109.902,-47.57c-38.976,-10.185 -79.545,-14.137 -119.848,-12.825Zm3377.13,-13.169c-28.978,-2.917 -58.141,-3.7 -87.251,-2.838c-58.193,2.387 -116.148,12.44 -171.331,30.887c-55.209,18.236 -107.567,44.958 -154.09,79.187c49.347,-29.998 102.342,-53.114 157.154,-69.426c54.878,-16.153 111.665,-25.423 168.731,-27.505c57.08,-2.122 114.425,2.745 170.363,14.747c55.913,12.122 110.512,31.007 162.221,56.722c-49.216,-30.211 -103.457,-52.743 -159.9,-66.721c-28.168,-7.162 -56.947,-11.989 -85.897,-15.053Zm-2015.43,-243.184c-34.349,7.864 -69.48,13.09 -104.876,16.153c17.785,0.425 35.582,-0.398 53.353,-1.724c17.784,-1.273 35.529,-3.408 53.141,-6.578c17.638,-3.116 35.131,-7.36 52.265,-13.248c17.068,-5.955 33.937,-13.687 48.618,-25.649l6.406,-5.225l-7.162,-4.403c-22.041,-13.58 -45.156,-24.482 -69.505,-33.195c-12.241,-4.098 -24.787,-7.586 -37.797,-9.535c-12.944,-1.963 -26.524,-2.573 -39.932,0.742c-12.824,3.157 -24.773,7.52 -36.642,12.188c-11.843,4.682 -23.54,9.589 -35.065,14.854c-11.578,5.158 -22.996,10.636 -34.322,16.325c-11.339,5.636 -22.651,11.312 -33.725,17.466l35.515,-13.328l35.529,-13.09c23.633,-8.434 47.544,-17.413 71.27,-22.824c11.312,-2.413 23.46,-1.591 35.396,0.266c11.976,1.909 23.845,5.318 35.489,9.363c20.529,6.989 40.542,16.352 59.692,26.696c-11.233,8.063 -24.123,14.323 -37.359,19.601c-16.219,6.326 -33.181,11.021 -50.289,15.145Zm228.888,257.56c-128.88,-1.047 -257.759,-0.994 -386.626,-1.512c-128.879,0.557 -257.759,0.451 -386.625,1.539l-193.32,1.83c-64.439,1.087 -128.879,1.724 -193.319,3.209c64.44,1.486 128.88,2.122 193.319,3.21l193.32,1.83c128.879,1.087 257.746,0.981 386.625,1.538c128.88,-0.517 257.759,-0.464 386.626,-1.512l193.319,-1.83c64.44,-1.1 128.88,-1.737 193.319,-3.222c-64.439,-1.499 -128.879,-2.136 -193.319,-3.223l-193.319,-1.857Z"/></g><g><path d="M442.069,1554.1l-185.724,0l-0,-4.037l17.765,-0c10.766,-0 16.957,-4.307 18.572,-12.92c1.615,-8.614 2.422,-18.842 2.422,-30.685l0,-442.508c0,-11.843 -0.807,-21.937 -2.422,-30.281c-1.615,-8.344 -7.806,-12.516 -18.572,-12.516l-17.765,-0l-0,-4.845l185.724,-0l-0,4.845l-17.765,-0c-10.228,-0 -16.285,4.172 -18.169,12.516c-1.884,8.344 -2.826,18.438 -2.826,30.281l-0,184.109l339.148,0l0,-184.109c0,-11.843 -0.942,-21.937 -2.826,-30.281c-1.884,-8.344 -7.94,-12.516 -18.169,-12.516l-17.765,-0l0,-4.845l185.725,-0l-0,4.845l-17.765,-0c-10.767,-0 -16.958,4.172 -18.573,12.516c-1.615,8.344 -2.422,18.438 -2.422,30.281l-0,442.508c-0,11.843 0.807,22.071 2.422,30.685c1.615,8.613 7.806,12.92 18.573,12.92l17.765,-0l-0,4.037l-185.725,0l0,-4.037l17.765,-0c10.229,-0 16.285,-4.307 18.169,-12.92c1.884,-8.614 2.826,-18.842 2.826,-30.685l0,-252.746l-339.148,-0l-0,252.746c-0,11.843 0.942,22.071 2.826,30.685c1.884,8.613 7.941,12.92 18.169,12.92l17.765,-0l-0,4.037Z" style="fill:url(#_Linear1);"/><path d="M1202.73,1143.08c31.223,-0 60.831,4.979 88.825,14.938c27.993,9.959 52.218,24.091 72.674,42.394c20.457,18.303 36.741,40.375 48.854,66.214c12.112,25.84 18.168,54.372 18.168,85.595c0,31.223 -6.056,59.755 -18.168,85.595c-12.113,25.84 -28.397,47.911 -48.854,66.214c-20.456,18.304 -44.681,32.435 -72.674,42.394c-27.994,9.959 -57.602,14.939 -88.825,14.939c-31.761,-0 -61.504,-4.98 -89.228,-14.939c-27.724,-9.959 -51.815,-24.09 -72.271,-42.394c-20.457,-18.303 -36.741,-40.374 -48.854,-66.214c-12.112,-25.84 -18.168,-54.372 -18.168,-85.595c-0,-31.223 6.056,-59.755 18.168,-85.595c12.113,-25.839 28.397,-47.911 48.854,-66.214c20.456,-18.303 44.547,-32.435 72.271,-42.394c27.724,-9.959 57.467,-14.938 89.228,-14.938Zm0,411.823c17.765,-0 34.319,-4.845 49.661,-14.535c15.342,-9.69 28.666,-23.418 39.971,-41.183c11.305,-17.765 20.322,-39.163 27.051,-64.196c6.729,-25.032 10.094,-52.621 10.094,-82.768c-0,-30.146 -3.365,-57.736 -10.094,-82.768c-6.729,-25.033 -15.746,-46.431 -27.051,-64.196c-11.305,-17.765 -24.629,-31.493 -39.971,-41.183c-15.342,-9.689 -31.896,-14.534 -49.661,-14.534c-17.765,-0 -34.319,4.845 -49.661,14.534c-15.342,9.69 -28.666,23.418 -39.971,41.183c-11.305,17.765 -20.322,39.163 -27.051,64.196c-6.729,25.032 -10.094,52.622 -10.094,82.768c0,30.147 3.365,57.736 10.094,82.768c6.729,25.033 15.746,46.431 27.051,64.196c11.305,17.765 24.629,31.493 39.971,41.183c15.342,9.69 31.896,14.535 49.661,14.535Z" style="fill:url(#_Linear2);"/><path d="M1650.89,1468.5c0,21.533 3.365,38.086 10.094,49.661c6.729,11.574 15.612,19.245 26.647,23.013c11.036,3.768 23.418,4.172 37.145,1.211c13.728,-2.96 27.859,-8.209 42.394,-15.746l3.23,5.653c-18.303,12.92 -40.106,21.802 -65.407,26.647c-25.302,4.845 -49.527,4.038 -72.675,-2.422c-23.148,-6.46 -42.797,-18.977 -58.947,-37.549c-16.15,-18.572 -24.225,-44.816 -24.225,-78.731l-0,-282.623l-53.295,-0l0,-7.268l32.3,0c8.075,0 14.4,-2.422 18.976,-7.267c4.576,-4.845 7.94,-12.651 10.094,-23.418c2.153,-10.766 3.499,-24.628 4.037,-41.586c0.539,-16.957 0.808,-37.548 0.808,-61.773l99.322,-0c-0,23.686 -3.096,43.874 -9.286,60.562c-6.191,16.688 -13.862,30.55 -23.014,41.586c-9.152,11.036 -18.707,19.111 -28.666,24.225c-9.959,5.114 -18.976,7.671 -27.051,7.671l178.456,0l0,7.268l-100.937,-0l0,310.886Z" style="fill:url(#_Linear3);"/><path d="M2969.53,1016.31l185.725,-0l-0,4.037c-29.07,0 -54.372,6.998 -75.905,20.995c-21.533,13.997 -39.029,33.107 -52.487,57.332l-248.709,455.428l-10.498,0c-2.153,-3.23 -4.037,-6.46 -5.652,-9.69c-1.615,-3.23 -3.499,-6.729 -5.653,-10.497c-5.921,-11.305 -12.112,-22.745 -18.572,-34.319c-6.46,-11.574 -12.651,-23.014 -18.572,-34.318c-9.152,-16.689 -18.169,-33.242 -27.051,-49.661c-8.883,-16.42 -17.9,-32.704 -27.052,-48.854c-7.536,-13.997 -15.207,-27.859 -23.013,-41.586c-7.806,-13.727 -15.477,-27.589 -23.014,-41.586l-147.772,270.511l-10.497,0c-2.153,-3.23 -4.038,-6.46 -5.653,-9.69c-1.615,-3.23 -3.499,-6.729 -5.652,-10.497l-37.145,-68.637c-9.151,-16.689 -18.169,-33.242 -27.051,-49.661c-8.882,-16.42 -17.899,-32.704 -27.051,-48.854c-10.228,-18.842 -20.322,-37.279 -30.281,-55.313c-9.959,-18.035 -19.784,-36.203 -29.474,-54.506c-9.151,-17.227 -18.438,-34.05 -27.858,-50.469c-9.421,-16.419 -18.707,-33.242 -27.859,-50.468c-6.46,-12.382 -13.055,-24.495 -19.784,-36.338c-6.729,-11.843 -13.323,-23.956 -19.783,-36.337c-2.692,-5.383 -5.653,-11.709 -8.883,-18.976c-3.23,-7.268 -6.864,-14.131 -10.901,-20.591c-4.037,-6.46 -8.748,-11.978 -14.131,-16.554c-5.383,-4.576 -11.574,-6.864 -18.573,-6.864l-20.994,0l-0,-4.037l185.724,-0l-0,4.037c-6.46,1.077 -12.113,2.692 -16.958,4.845c-4.306,1.615 -7.806,3.499 -10.497,5.653c-2.692,2.153 -2.961,4.845 -0.808,8.075c5.922,10.766 13.324,24.359 22.206,40.778c8.883,16.419 17.631,32.435 26.244,48.046c9.69,17.765 19.918,36.607 30.685,56.525l3.23,6.46l145.349,265.666l100.13,-181.687c-1.615,-2.691 -3.365,-5.652 -5.249,-8.882c-1.884,-3.23 -3.634,-6.191 -5.249,-8.882c-9.151,-17.227 -18.303,-34.05 -27.455,-50.469c-9.151,-16.419 -18.303,-33.242 -27.455,-50.468c-6.459,-12.382 -13.054,-24.495 -19.783,-36.338c-6.729,-11.843 -13.324,-23.956 -19.784,-36.337c-2.691,-5.383 -5.652,-11.709 -8.882,-18.976c-3.23,-7.268 -6.864,-14.131 -10.901,-20.591c-4.038,-6.46 -8.748,-11.978 -14.132,-16.554c-5.383,-4.576 -11.574,-6.864 -18.572,-6.864l-20.995,0l0,-4.037l185.724,-0l0,4.037c-6.46,1.077 -12.112,2.692 -16.957,4.845c-4.307,1.615 -7.806,3.499 -10.498,5.653c-2.691,2.153 -2.961,4.845 -0.807,8.075c5.921,10.766 13.323,24.359 22.206,40.778c8.882,16.419 17.63,32.435 26.244,48.046c9.689,17.765 19.918,36.607 30.684,56.525l3.23,6.46l145.35,265.666l146.156,-265.666l3.23,-6.46l46.835,-85.595c4.845,-8.613 7.537,-17.63 8.075,-27.051c0.538,-9.421 -1.076,-17.899 -4.845,-25.436c-3.768,-7.537 -9.421,-13.727 -16.957,-18.572c-7.537,-4.845 -16.688,-7.268 -27.455,-7.268l-7.268,0l0,-4.037Z" style="fill:url(#_Linear4);"/><path d="M3129.42,1222.22c19.38,-21.533 42.797,-38.49 70.252,-50.872c27.455,-12.382 56.121,-20.457 85.998,-24.225c29.878,-3.768 59.62,-3.634 89.228,0.404c29.609,4.037 56.121,11.978 79.539,23.821c23.417,11.843 42.393,27.455 56.928,46.835c14.535,19.38 21.803,41.99 21.803,67.829l-0,268.897l-19.38,-0l-81.557,-98.515c-9.152,26.917 -24.091,48.45 -44.816,64.6c-20.726,16.15 -44.009,27.589 -69.849,34.318c-25.84,6.729 -52.622,8.614 -80.346,5.653c-27.724,-2.961 -53.025,-10.363 -75.904,-22.206c-22.879,-11.844 -41.721,-27.724 -56.525,-47.643c-14.804,-19.918 -22.206,-43.874 -22.206,-71.867c-0,-36.606 8.748,-64.196 26.244,-82.768c17.495,-18.573 41.586,-31.627 72.27,-39.164c30.685,-7.536 67.023,-11.439 109.012,-11.708c41.99,-0.27 87.21,-0.404 135.66,-0.404c-5.922,-26.917 -15.881,-48.719 -29.878,-65.407c-13.996,-16.689 -30.146,-29.07 -48.449,-37.145c-18.304,-8.075 -37.818,-12.382 -58.544,-12.92c-20.726,-0.538 -40.778,1.615 -60.158,6.46c-19.38,4.845 -37.011,12.112 -52.891,21.802c-15.881,9.69 -28.128,20.726 -36.741,33.108l-9.69,-8.883Zm302.003,106.59c0,-13.459 -1.076,-25.302 -3.23,-35.53c-31.761,-0 -61.773,-0.404 -90.036,-1.211c-28.262,-0.808 -53.025,1.749 -74.289,7.671c-21.264,5.921 -38.087,16.957 -50.469,33.107c-12.381,16.15 -18.572,40.913 -18.572,74.29c-0,30.685 5.787,55.852 17.361,75.501c11.574,19.649 26.244,34.049 44.009,43.201c17.764,9.151 36.741,13.458 56.928,12.92c20.187,-0.539 39.164,-5.922 56.928,-16.15c17.765,-10.229 32.435,-25.033 44.009,-44.413c11.574,-19.379 17.361,-43.066 17.361,-71.059l0,-78.327Z" style="fill:url(#_Linear5);"/><path d="M3725.35,1211.72c-0,17.765 7.267,32.165 21.802,43.201c14.535,11.036 32.838,20.726 54.91,29.07c22.071,8.344 45.758,16.419 71.06,24.225c25.301,7.805 48.988,16.957 71.059,27.454c22.072,10.498 40.375,23.687 54.91,39.568c14.535,15.88 21.802,36.202 21.802,60.966c0,18.303 -3.768,34.184 -11.305,47.642c-7.536,13.458 -17.226,24.898 -29.069,34.319c-11.844,9.42 -25.167,16.957 -39.972,22.609c-14.804,5.653 -29.608,10.094 -44.412,13.324c-14.804,3.23 -28.801,5.383 -41.99,6.46c-13.189,1.077 -24.09,1.615 -32.703,1.615c-31.762,0 -58.409,-3.095 -79.942,-9.286c-21.534,-6.191 -38.76,-11.44 -51.68,-15.746c-12.92,-4.307 -22.072,-5.787 -27.455,-4.442c-5.383,1.346 -8.075,9.287 -8.075,23.822l-8.075,-0l-16.15,-128.392l8.075,-0c3.768,27.455 13.458,50.199 29.07,68.233c15.612,18.034 34.319,31.762 56.121,41.182c21.802,9.421 44.951,14.805 69.445,16.15c24.494,1.346 47.104,-1.076 67.829,-7.267c20.726,-6.191 37.818,-15.881 51.276,-29.07c13.459,-13.189 20.188,-29.474 20.188,-48.853c-0,-18.842 -7.268,-34.454 -21.803,-46.835c-14.535,-12.382 -32.569,-23.148 -54.102,-32.3c-21.533,-9.152 -45.085,-17.765 -70.656,-25.84c-25.57,-8.075 -49.122,-17.361 -70.656,-27.859c-21.533,-10.497 -39.567,-23.282 -54.102,-38.356c-14.535,-15.073 -21.802,-34.184 -21.802,-57.332c-0,-20.456 5.921,-37.145 17.765,-50.065c11.843,-12.92 26.378,-23.013 43.604,-30.281c17.227,-7.267 35.53,-12.247 54.91,-14.938c19.38,-2.692 36.607,-4.038 51.68,-4.038c31.223,0 57.198,3.634 77.923,10.901c20.726,7.268 37.28,13.459 49.661,18.573c12.382,5.114 21.13,6.729 26.244,4.845c5.114,-1.884 7.671,-11.709 7.671,-29.474l8.075,0l16.15,129.199l-8.075,0c-3.23,-25.839 -11.978,-47.373 -26.244,-64.599c-14.265,-17.227 -30.954,-30.55 -50.064,-39.971c-19.111,-9.421 -39.433,-15.208 -60.966,-17.361c-21.534,-2.154 -41.317,-1.212 -59.351,2.826c-18.034,4.037 -32.973,10.901 -44.816,20.591c-11.844,9.69 -17.765,21.533 -17.765,35.53Z" style="fill:url(#_Linear6);"/><path d="M4580.49,1506.45c0,11.843 0.942,22.071 2.826,30.685c1.884,8.613 7.941,12.92 18.169,12.92l17.765,-0l-0,4.037l-179.264,0l-0,-4.037l17.765,-0c10.766,-0 16.957,-4.307 18.572,-12.92c1.615,-8.614 2.423,-18.842 2.423,-30.685l-0,-201.067c-0,-31.761 -5.787,-58.005 -17.362,-78.731c-11.574,-20.725 -25.974,-36.202 -43.201,-46.431c-17.226,-10.228 -35.933,-15.073 -56.121,-14.535c-20.187,0.539 -38.894,6.326 -56.121,17.362c-17.226,11.035 -31.626,27.32 -43.201,48.853c-11.574,21.533 -17.361,48.45 -17.361,80.75l0,193.799c0,11.843 0.942,22.071 2.826,30.685c1.885,8.613 7.941,12.92 18.169,12.92l18.573,-0l-0,4.037l-179.265,0l0,-4.037l17.765,-0c10.229,-0 16.285,-4.307 18.169,-12.92c1.884,-8.614 2.826,-18.842 2.826,-30.685l0,-440.893c0,-11.305 -3.768,-20.995 -11.305,-29.07c-7.536,-8.075 -16.688,-12.92 -27.455,-14.535l0,-4.845l139.697,-37.145l0,262.437c6.999,-23.149 20.188,-42.529 39.568,-58.14c19.379,-15.612 41.451,-27.051 66.214,-34.319c24.763,-7.267 50.603,-9.824 77.52,-7.671c26.916,2.153 51.68,9.421 74.289,21.802c22.61,12.382 41.183,30.147 55.718,53.295c14.535,23.148 21.802,52.487 21.802,88.017l0,201.067Z" style="fill:url(#_Linear7);"/></g><defs><linearGradient id="_Linear1" x1="0" y1="0" x2="1" y2="0" gradientUnits="userSpaceOnUse" gradientTransform="matrix(4362.9,0,0,582.35,256.345,1271.14)"><stop offset="0" style="stop-color:#747474;stop-opacity:1"/><stop offset="1" style="stop-color:#2d2d2d;stop-opacity:1"/></linearGradient><linearGradient id="_Linear2" x1="0" y1="0" x2="1" y2="0" gradientUnits="userSpaceOnUse" gradientTransform="matrix(4362.9,0,0,582.35,256.345,1271.14)"><stop offset="0" style="stop-color:#747474;stop-opacity:1"/><stop offset="1" style="stop-color:#2d2d2d;stop-opacity:1"/></linearGradient><linearGradient id="_Linear3" x1="0" y1="0" x2="1" y2="0" gradientUnits="userSpaceOnUse" gradientTransform="matrix(4362.9,0,0,582.35,256.345,1271.14)"><stop offset="0" style="stop-color:#747474;stop-opacity:1"/><stop offset="1" style="stop-color:#2d2d2d;stop-opacity:1"/></linearGradient><linearGradient id="_Linear4" x1="0" y1="0" x2="1" y2="0" gradientUnits="userSpaceOnUse" gradientTransform="matrix(4362.9,0,0,582.35,256.345,1271.14)"><stop offset="0" style="stop-color:#747474;stop-opacity:1"/><stop offset="1" style="stop-color:#2d2d2d;stop-opacity:1"/></linearGradient><linearGradient id="_Linear5" x1="0" y1="0" x2="1" y2="0" gradientUnits="userSpaceOnUse" gradientTransform="matrix(4362.9,0,0,582.35,256.345,1271.14)"><stop offset="0" style="stop-color:#747474;stop-opacity:1"/><stop offset="1" style="stop-color:#2d2d2d;stop-opacity:1"/></linearGradient><linearGradient id="_Linear6" x1="0" y1="0" x2="1" y2="0" gradientUnits="userSpaceOnUse" gradientTransform="matrix(4362.9,0,0,582.35,256.345,1271.14)"><stop offset="0" style="stop-color:#747474;stop-opacity:1"/><stop offset="1" style="stop-color:#2d2d2d;stop-opacity:1"/></linearGradient><linearGradient id="_Linear7" x1="0" y1="0" x2="1" y2="0" gradientUnits="userSpaceOnUse" gradientTransform="matrix(4362.9,0,0,582.35,256.345,1271.14)"><stop offset="0" style="stop-color:#747474;stop-opacity:1"/><stop offset="1" style="stop-color:#2d2d2d;stop-opacity:1"/></linearGradient></defs></svg>