<?xml version="1.0" encoding="utf-8"?>
<!-- Generator: Adobe Illustrator 24.0.1, SVG Export Plug-In . SVG Version: 6.00 Build 0)  -->
<svg version="1.1" id="Layer_1" xmlns="http://www.w3.org/2000/svg" xmlns:xlink="http://www.w3.org/1999/xlink" x="0px" y="0px"
	 viewBox="0 0 180.85 53.15" style="enable-background:new 0 0 180.85 53.15;" xml:space="preserve">
<style type="text/css">
	.st0{fill:#FFFFFF;}
	.st1{fill:#FE0000;}
</style>
<polygon class="st0" points="11.3,24.21 13.4,30.65 20.16,30.65 14.69,34.63 16.78,41.07 11.3,37.09 5.83,41.07 7.92,34.63 
	2.45,30.65 9.21,30.65 "/>
<polygon class="st1" points="180.85,0 155.06,53.15 0,53.15 0,0 "/>
<g>
	<path class="st0" d="M24.87,23.35h10.48c-0.11,1.25-0.38,2.41-0.83,3.46c-0.44,1.05-1.03,1.95-1.77,2.71
		c-0.74,0.76-1.61,1.35-2.63,1.77c-1.02,0.42-2.15,0.63-3.41,0.63c-1.23,0-2.37-0.24-3.42-0.71c-1.05-0.47-1.96-1.11-2.72-1.91
		c-0.77-0.8-1.37-1.72-1.8-2.76c-0.43-1.04-0.65-2.12-0.65-3.24c0-1.19,0.24-2.3,0.73-3.33c0.49-1.03,1.14-1.91,1.96-2.66
		c0.82-0.75,1.76-1.34,2.81-1.77c1.05-0.43,2.15-0.65,3.29-0.65c1.64,0,3.13,0.4,4.44,1.18c1.32,0.79,2.32,1.9,2.99,3.33h-3.02
		c-0.63-0.74-1.33-1.27-2.11-1.61c-0.78-0.33-1.61-0.5-2.5-0.5c-0.84,0-1.63,0.17-2.37,0.5c-0.74,0.34-1.37,0.78-1.92,1.35
		c-0.54,0.56-0.97,1.21-1.28,1.93c-0.31,0.73-0.47,1.48-0.47,2.26c0,0.86,0.16,1.68,0.49,2.43c0.32,0.76,0.76,1.42,1.31,2
		s1.19,1.02,1.91,1.35c0.72,0.33,1.5,0.49,2.32,0.49c1.36,0,2.53-0.37,3.51-1.12c0.97-0.75,1.75-1.68,2.34-2.81h-7.69
		C24.87,25.66,24.87,23.35,24.87,23.35z"/>
</g>
<polygon class="st0" points="40.62,17.9 35.62,17.9 35.62,15.34 40.75,15.34 43.08,15.34 48.24,15.34 48.24,17.9 43.21,17.9 
	43.21,31.56 40.62,31.56 "/>
<polygon class="st0" points="52.46,17.64 52.46,21.99 60.31,21.99 60.31,24.29 52.46,24.29 52.46,29.26 62.1,29.26 62.1,31.56 
	49.9,31.56 49.9,15.34 62.1,15.34 62.1,17.64 "/>
<g>
	<path class="st0" d="M71.59,29.55c0.89,0,1.72-0.17,2.5-0.52c0.78-0.35,1.48-0.88,2.11-1.59h3.02c-0.69,1.43-1.7,2.53-3.02,3.31
		c-1.32,0.78-2.8,1.17-4.45,1.17c-1.25,0-2.38-0.19-3.37-0.58c-0.52-0.19-1.01-0.44-1.46-0.75c-0.46-0.3-0.89-0.65-1.3-1.04
		c-0.87-0.84-1.53-1.77-1.98-2.79c-0.45-1.04-0.68-2.12-0.68-3.24c0-1.17,0.22-2.28,0.67-3.33s1.06-1.96,1.83-2.74
		c0.78-0.78,1.69-1.4,2.74-1.87c1.05-0.47,2.17-0.7,3.36-0.7c1.6,0,3.07,0.38,4.41,1.13c1.34,0.76,2.41,1.87,3.21,3.34h-2.92
		c-0.58-0.69-1.28-1.22-2.08-1.59c-0.8-0.37-1.68-0.55-2.63-0.55c-0.84,0-1.63,0.17-2.35,0.5c-0.72,0.33-1.36,0.78-1.91,1.35
		c-0.55,0.56-0.99,1.22-1.3,1.98c-0.31,0.76-0.47,1.57-0.47,2.43c0,0.82,0.16,1.6,0.49,2.34c0.32,0.74,0.76,1.38,1.31,1.93
		c0.55,0.55,1.19,0.99,1.93,1.31C69.99,29.39,70.76,29.55,71.59,29.55"/>
</g>
<polygon class="st0" points="93.97,15.34 94.46,15.34 94.46,31.56 91.9,31.56 91.9,24.29 83.27,24.29 83.27,31.56 80.7,31.56 
	80.7,15.34 83.27,15.34 83.27,21.99 91.9,21.99 91.9,15.34 "/>
<g>
	<path class="st0" d="M106.68,16.02c0.88,0.43,1.6,1.02,2.17,1.75c0.57,0.74,1,1.59,1.28,2.56c0.28,0.97,0.42,2.01,0.42,3.11v8.11
		h-2.53v-8.11c0-0.69-0.09-1.37-0.26-2.04c-0.17-0.67-0.44-1.26-0.79-1.78c-0.36-0.52-0.82-0.94-1.38-1.27
		c-0.56-0.32-1.23-0.49-2.01-0.49l-4.12,0.03v13.66h-2.53V15.34h6.65C104.77,15.36,105.8,15.59,106.68,16.02"/>
</g>
<rect x="112.99" y="15.34" class="st0" width="2.56" height="16.22"/>
<g>
	<path class="st0" d="M131.39,26.98c0.37-0.5,0.66-1.06,0.88-1.67c0.22-0.62,0.32-1.26,0.32-1.93c0-0.84-0.16-1.63-0.47-2.35
		c-0.31-0.73-0.74-1.36-1.28-1.92c-0.54-0.55-1.18-0.98-1.91-1.3c-0.74-0.31-1.51-0.47-2.34-0.47c-0.84,0-1.63,0.16-2.35,0.47
		c-0.73,0.31-1.36,0.75-1.91,1.3c-0.55,0.55-0.98,1.19-1.3,1.92c-0.31,0.73-0.47,1.51-0.47,2.35c0,0.82,0.16,1.6,0.47,2.34
		c0.31,0.74,0.75,1.37,1.3,1.91c0.55,0.54,1.19,0.97,1.91,1.28c0.72,0.31,1.51,0.47,2.35,0.47c1.1,0,2.11-0.27,3.02-0.81l-4.22-4.74
		l2.08-1.3L131.39,26.98z M135.35,31.56h-3.08l-0.94-1.07c-0.69,0.45-1.43,0.81-2.22,1.06c-0.79,0.25-1.63,0.37-2.51,0.37
		c-1.19,0-2.3-0.22-3.34-0.67s-1.95-1.06-2.73-1.83c-0.78-0.78-1.39-1.69-1.83-2.73c-0.44-1.04-0.66-2.14-0.66-3.31
		c0-1.19,0.22-2.3,0.66-3.34c0.44-1.04,1.05-1.95,1.83-2.73c0.78-0.78,1.69-1.39,2.73-1.83c1.04-0.44,2.15-0.67,3.34-0.67
		c1.17,0,2.27,0.22,3.31,0.67c1.04,0.44,1.95,1.05,2.73,1.83c0.78,0.78,1.4,1.69,1.85,2.73c0.45,1.04,0.68,2.15,0.68,3.34
		c0,1.06-0.18,2.06-0.55,3c-0.37,0.94-0.88,1.79-1.52,2.55L135.35,31.56z"/>
	<path class="st0" d="M18.94,39.26c0.08,0.17,0.19,0.3,0.33,0.4c0.14,0.1,0.31,0.17,0.51,0.21c0.19,0.04,0.4,0.06,0.62,0.06
		c0.13,0,0.26-0.02,0.41-0.05s0.29-0.09,0.42-0.17c0.13-0.08,0.24-0.18,0.32-0.3s0.13-0.27,0.13-0.45c0-0.13-0.03-0.25-0.09-0.35
		c-0.06-0.1-0.14-0.18-0.24-0.25s-0.2-0.12-0.32-0.17c-0.12-0.04-0.23-0.08-0.35-0.1l-1.08-0.26c-0.14-0.04-0.28-0.08-0.41-0.13
		c-0.13-0.06-0.25-0.13-0.35-0.22s-0.18-0.2-0.24-0.33s-0.09-0.29-0.09-0.48c0-0.12,0.02-0.26,0.07-0.41
		c0.04-0.16,0.13-0.31,0.25-0.45s0.29-0.26,0.51-0.36c0.22-0.1,0.49-0.15,0.83-0.15c0.24,0,0.47,0.03,0.68,0.1
		c0.22,0.06,0.41,0.16,0.57,0.28c0.16,0.13,0.29,0.28,0.39,0.47c0.1,0.19,0.15,0.41,0.15,0.65h-0.46c-0.01-0.19-0.05-0.35-0.13-0.48
		c-0.07-0.14-0.17-0.25-0.29-0.35c-0.12-0.09-0.26-0.16-0.41-0.21c-0.16-0.05-0.32-0.07-0.49-0.07c-0.16,0-0.31,0.02-0.46,0.05
		c-0.15,0.03-0.28,0.09-0.38,0.16c-0.11,0.07-0.2,0.17-0.27,0.29c-0.07,0.12-0.1,0.27-0.1,0.45c0,0.11,0.02,0.21,0.06,0.29
		c0.04,0.08,0.09,0.15,0.16,0.21c0.07,0.06,0.15,0.11,0.23,0.14s0.18,0.06,0.28,0.09l1.18,0.29c0.17,0.04,0.33,0.1,0.48,0.17
		c0.15,0.06,0.28,0.15,0.4,0.24c0.12,0.1,0.21,0.22,0.27,0.36c0.06,0.14,0.1,0.31,0.1,0.51c0,0.05-0.01,0.13-0.02,0.22
		c-0.01,0.09-0.04,0.19-0.08,0.29c-0.04,0.1-0.1,0.2-0.18,0.31s-0.19,0.2-0.33,0.28s-0.31,0.15-0.51,0.2s-0.45,0.08-0.73,0.08
		s-0.55-0.03-0.79-0.1c-0.24-0.07-0.45-0.17-0.62-0.3c-0.17-0.14-0.3-0.31-0.4-0.52c-0.09-0.21-0.13-0.47-0.12-0.76h0.46
		C18.82,38.89,18.86,39.09,18.94,39.26"/>
</g>
<polygon class="st0" points="25.23,35.4 26.83,39.63 28.5,35.4 29.17,35.4 29.17,40.23 28.71,40.23 28.71,36.05 28.7,36.05 
	27.05,40.23 26.61,40.23 25.02,36.05 25.01,36.05 25.01,40.23 24.55,40.23 24.55,35.4 "/>
<path class="st0" d="M34.4,38.33l-0.94-2.48l-0.97,2.48H34.4z M33.74,35.4l1.9,4.83h-0.49l-0.59-1.5h-2.2l-0.58,1.5h-0.49l1.94-4.83
	H33.74z"/>
<g>
	<path class="st0" d="M39.95,37.69c0.14,0,0.27-0.02,0.4-0.06c0.13-0.04,0.24-0.1,0.33-0.19c0.1-0.08,0.17-0.18,0.23-0.29
		c0.06-0.12,0.08-0.25,0.08-0.4c0-0.3-0.09-0.53-0.26-0.7c-0.17-0.17-0.43-0.26-0.79-0.26h-1.72v1.9L39.95,37.69z M39.98,35.4
		c0.2,0,0.39,0.03,0.57,0.08c0.18,0.05,0.33,0.12,0.47,0.23c0.13,0.1,0.24,0.23,0.32,0.39c0.08,0.16,0.12,0.35,0.12,0.56
		c0,0.31-0.08,0.57-0.24,0.8c-0.16,0.23-0.39,0.37-0.7,0.43v0.01c0.16,0.02,0.29,0.06,0.39,0.12c0.1,0.06,0.19,0.14,0.25,0.23
		c0.07,0.09,0.11,0.2,0.14,0.33c0.03,0.12,0.05,0.26,0.06,0.4c0,0.08,0.01,0.18,0.01,0.3c0,0.12,0.01,0.24,0.03,0.35
		c0.01,0.12,0.04,0.23,0.06,0.34s0.07,0.19,0.12,0.25h-0.51c-0.03-0.04-0.05-0.1-0.06-0.17c-0.02-0.06-0.03-0.13-0.03-0.2
		c-0.01-0.07-0.01-0.14-0.02-0.21c0-0.07-0.01-0.13-0.01-0.18c-0.01-0.17-0.02-0.34-0.04-0.51c-0.02-0.17-0.06-0.32-0.13-0.45
		c-0.07-0.13-0.16-0.24-0.29-0.32c-0.12-0.08-0.29-0.12-0.51-0.11h-1.75v2.15h-0.46V35.4L39.98,35.4z"/>
</g>
<polygon class="st0" points="47.33,35.4 47.33,35.79 45.64,35.79 45.64,40.23 45.18,40.23 45.18,35.79 43.51,35.79 43.51,35.4 "/>
<g>
	<path class="st0" d="M53.38,39.26c0.08,0.17,0.19,0.3,0.33,0.4c0.14,0.1,0.31,0.17,0.5,0.21c0.19,0.04,0.4,0.06,0.62,0.06
		c0.13,0,0.26-0.02,0.41-0.05s0.29-0.09,0.42-0.17c0.13-0.08,0.24-0.18,0.32-0.3s0.13-0.27,0.13-0.45c0-0.13-0.03-0.25-0.09-0.35
		c-0.06-0.1-0.14-0.18-0.24-0.25s-0.2-0.12-0.32-0.17c-0.12-0.04-0.23-0.08-0.35-0.1l-1.08-0.26c-0.14-0.04-0.28-0.08-0.41-0.13
		c-0.13-0.06-0.25-0.13-0.35-0.22s-0.18-0.2-0.24-0.33s-0.09-0.29-0.09-0.48c0-0.12,0.02-0.26,0.07-0.41
		c0.04-0.16,0.13-0.31,0.25-0.45s0.29-0.26,0.51-0.36c0.22-0.1,0.49-0.15,0.83-0.15c0.24,0,0.47,0.03,0.68,0.1
		c0.22,0.06,0.41,0.16,0.57,0.28c0.16,0.13,0.29,0.28,0.39,0.47c0.1,0.19,0.15,0.41,0.15,0.65h-0.46c-0.01-0.19-0.05-0.35-0.13-0.48
		c-0.07-0.14-0.17-0.25-0.29-0.35c-0.12-0.09-0.26-0.16-0.41-0.21c-0.16-0.05-0.32-0.07-0.49-0.07c-0.16,0-0.31,0.02-0.46,0.05
		c-0.15,0.03-0.28,0.09-0.39,0.16c-0.11,0.07-0.2,0.17-0.27,0.29c-0.07,0.12-0.1,0.27-0.1,0.45c0,0.11,0.02,0.21,0.06,0.29
		c0.04,0.08,0.09,0.15,0.16,0.21c0.07,0.06,0.15,0.11,0.23,0.14s0.18,0.06,0.28,0.09l1.18,0.29c0.17,0.04,0.33,0.1,0.48,0.17
		c0.15,0.06,0.28,0.15,0.4,0.24c0.11,0.1,0.21,0.22,0.27,0.36s0.1,0.31,0.1,0.51c0,0.05,0,0.13-0.02,0.22
		c-0.01,0.09-0.04,0.19-0.08,0.29c-0.04,0.1-0.1,0.2-0.18,0.31s-0.19,0.2-0.32,0.28s-0.31,0.15-0.51,0.2s-0.45,0.08-0.73,0.08
		s-0.55-0.03-0.79-0.1c-0.24-0.07-0.45-0.17-0.62-0.3c-0.17-0.14-0.3-0.31-0.4-0.52c-0.09-0.21-0.13-0.47-0.12-0.76h0.46
		C53.26,38.89,53.3,39.09,53.38,39.26"/>
	<path class="st0" d="M59.42,35.4v2.99c0,0.28,0.03,0.52,0.1,0.72c0.06,0.2,0.16,0.36,0.28,0.48c0.12,0.12,0.27,0.22,0.45,0.27
		c0.18,0.06,0.38,0.08,0.6,0.08c0.23,0,0.43-0.03,0.6-0.08c0.18-0.06,0.32-0.15,0.45-0.27c0.12-0.12,0.21-0.28,0.28-0.48
		c0.06-0.2,0.1-0.44,0.1-0.72V35.4h0.46v3.09c0,0.25-0.04,0.48-0.11,0.71c-0.07,0.22-0.18,0.42-0.33,0.58s-0.35,0.3-0.58,0.4
		s-0.53,0.15-0.86,0.15c-0.33,0-0.62-0.05-0.86-0.15c-0.24-0.1-0.43-0.23-0.58-0.4c-0.15-0.17-0.26-0.36-0.33-0.58
		c-0.07-0.22-0.11-0.46-0.11-0.71V35.4H59.42z"/>
	<path class="st0" d="M67.52,37.69c0.14,0,0.27-0.02,0.4-0.06c0.13-0.04,0.24-0.1,0.33-0.19c0.1-0.08,0.17-0.18,0.23-0.29
		c0.06-0.12,0.08-0.25,0.08-0.4c0-0.3-0.09-0.53-0.26-0.7c-0.17-0.17-0.43-0.26-0.79-0.26H65.8v1.9L67.52,37.69z M67.55,35.4
		c0.2,0,0.39,0.03,0.57,0.08c0.18,0.05,0.33,0.12,0.47,0.23c0.13,0.1,0.24,0.23,0.32,0.39c0.08,0.16,0.12,0.35,0.12,0.56
		c0,0.31-0.08,0.57-0.24,0.8c-0.16,0.23-0.39,0.37-0.7,0.43v0.01c0.16,0.02,0.29,0.06,0.39,0.12c0.1,0.06,0.19,0.14,0.25,0.23
		c0.07,0.09,0.11,0.2,0.14,0.33c0.03,0.12,0.05,0.26,0.06,0.4c0,0.08,0.01,0.18,0.01,0.3c0,0.12,0.01,0.24,0.03,0.35
		c0.01,0.12,0.04,0.23,0.06,0.34s0.07,0.19,0.12,0.25h-0.51c-0.03-0.04-0.05-0.1-0.06-0.17c-0.02-0.06-0.03-0.13-0.03-0.2
		c-0.01-0.07-0.01-0.14-0.02-0.21c0-0.07-0.01-0.13-0.01-0.18c-0.01-0.17-0.02-0.34-0.04-0.51c-0.02-0.17-0.06-0.32-0.13-0.45
		c-0.07-0.13-0.16-0.24-0.29-0.32s-0.29-0.12-0.51-0.11H65.8v2.15h-0.46V35.4L67.55,35.4z"/>
</g>
<polygon class="st0" points="74.61,35.4 74.61,35.79 72.01,35.79 72.01,37.53 74.32,37.53 74.32,37.93 72.01,37.93 72.01,40.23 
	71.55,40.23 71.55,35.4 "/>
<path class="st0" d="M79.09,38.33l-0.93-2.48l-0.97,2.48H79.09z M78.43,35.4l1.9,4.83h-0.5l-0.59-1.5h-2.2l-0.58,1.5h-0.49
	l1.94-4.83H78.43z"/>
<g>
	<path class="st0" d="M85.79,36.36c-0.09-0.15-0.21-0.27-0.34-0.37c-0.13-0.1-0.28-0.17-0.44-0.23c-0.16-0.05-0.33-0.08-0.5-0.08
		c-0.32,0-0.6,0.06-0.83,0.18c-0.23,0.12-0.42,0.28-0.57,0.48c-0.15,0.2-0.25,0.43-0.32,0.68c-0.07,0.25-0.11,0.51-0.11,0.78
		c0,0.26,0.04,0.52,0.11,0.78c0.07,0.26,0.18,0.48,0.32,0.68c0.15,0.2,0.33,0.36,0.57,0.48s0.51,0.18,0.83,0.18
		c0.23,0,0.43-0.04,0.61-0.12c0.18-0.08,0.34-0.19,0.47-0.33c0.13-0.14,0.24-0.3,0.32-0.49c0.08-0.19,0.13-0.39,0.16-0.61h0.46
		c-0.03,0.3-0.1,0.57-0.21,0.81c-0.11,0.24-0.25,0.44-0.42,0.61c-0.17,0.17-0.37,0.29-0.61,0.39c-0.23,0.09-0.49,0.13-0.78,0.13
		c-0.38,0-0.71-0.07-1-0.21c-0.29-0.14-0.53-0.32-0.71-0.55c-0.19-0.23-0.33-0.5-0.43-0.8c-0.1-0.3-0.14-0.62-0.14-0.96
		c0-0.33,0.05-0.65,0.14-0.95c0.1-0.3,0.24-0.57,0.43-0.8c0.19-0.23,0.43-0.42,0.71-0.56c0.29-0.14,0.62-0.21,1-0.21
		c0.23,0,0.46,0.03,0.67,0.1c0.22,0.07,0.42,0.17,0.6,0.3c0.18,0.13,0.33,0.3,0.45,0.49c0.12,0.19,0.19,0.42,0.23,0.67h-0.46
		C85.95,36.67,85.89,36.51,85.79,36.36"/>
</g>
<polygon class="st0" points="92.26,35.4 92.26,35.79 89.38,35.79 89.38,37.53 92.07,37.53 92.07,37.93 89.38,37.93 89.38,39.84 
	92.29,39.84 92.29,40.23 88.92,40.23 88.92,35.4 "/>
<g>
	<path class="st0" d="M98.53,39.26c0.08,0.17,0.19,0.3,0.33,0.4c0.14,0.1,0.31,0.17,0.5,0.21c0.19,0.04,0.4,0.06,0.62,0.06
		c0.13,0,0.26-0.02,0.41-0.05s0.29-0.09,0.42-0.17c0.13-0.08,0.24-0.18,0.32-0.3s0.13-0.27,0.13-0.45c0-0.13-0.03-0.25-0.09-0.35
		c-0.06-0.1-0.14-0.18-0.24-0.25s-0.2-0.12-0.32-0.17c-0.12-0.04-0.23-0.08-0.35-0.1l-1.08-0.26c-0.14-0.04-0.28-0.08-0.41-0.13
		c-0.13-0.06-0.25-0.13-0.35-0.22s-0.18-0.2-0.24-0.33s-0.09-0.29-0.09-0.48c0-0.12,0.02-0.26,0.07-0.41
		c0.04-0.16,0.13-0.31,0.25-0.45s0.29-0.26,0.51-0.36c0.22-0.1,0.49-0.15,0.83-0.15c0.24,0,0.47,0.03,0.68,0.1
		c0.22,0.06,0.41,0.16,0.57,0.28c0.16,0.13,0.29,0.28,0.39,0.47c0.1,0.19,0.15,0.41,0.15,0.65h-0.46c-0.01-0.19-0.05-0.35-0.13-0.48
		c-0.07-0.14-0.17-0.25-0.29-0.35c-0.12-0.09-0.26-0.16-0.41-0.21c-0.16-0.05-0.32-0.07-0.49-0.07c-0.16,0-0.31,0.02-0.46,0.05
		c-0.15,0.03-0.28,0.09-0.39,0.16c-0.11,0.07-0.2,0.17-0.27,0.29s-0.1,0.27-0.1,0.45c0,0.11,0.02,0.21,0.06,0.29
		c0.04,0.08,0.09,0.15,0.16,0.21c0.07,0.06,0.15,0.11,0.23,0.14s0.18,0.06,0.28,0.09l1.18,0.29c0.17,0.04,0.33,0.1,0.48,0.17
		c0.15,0.06,0.28,0.15,0.4,0.24c0.11,0.1,0.21,0.22,0.27,0.36s0.1,0.31,0.1,0.51c0,0.05,0,0.13-0.02,0.22
		c-0.01,0.09-0.04,0.19-0.08,0.29c-0.04,0.1-0.1,0.2-0.18,0.31s-0.19,0.2-0.32,0.28s-0.31,0.15-0.51,0.2s-0.45,0.08-0.73,0.08
		s-0.55-0.03-0.79-0.1c-0.24-0.07-0.45-0.17-0.62-0.3c-0.17-0.14-0.3-0.31-0.4-0.52c-0.09-0.21-0.13-0.47-0.12-0.76h0.46
		C98.41,38.89,98.45,39.09,98.53,39.26"/>
	<path class="st0" d="M107.49,36.36c-0.09-0.15-0.21-0.27-0.34-0.37c-0.13-0.1-0.28-0.17-0.44-0.23c-0.16-0.05-0.33-0.08-0.5-0.08
		c-0.32,0-0.6,0.06-0.83,0.18c-0.23,0.12-0.42,0.28-0.57,0.48c-0.15,0.2-0.26,0.43-0.32,0.68c-0.07,0.25-0.1,0.51-0.1,0.78
		c0,0.26,0.04,0.52,0.1,0.78c0.07,0.26,0.18,0.48,0.32,0.68c0.15,0.2,0.34,0.36,0.57,0.48s0.51,0.18,0.83,0.18
		c0.23,0,0.43-0.04,0.61-0.12c0.18-0.08,0.34-0.19,0.47-0.33c0.13-0.14,0.24-0.3,0.32-0.49c0.08-0.19,0.13-0.39,0.16-0.61h0.46
		c-0.03,0.3-0.1,0.57-0.21,0.81c-0.11,0.24-0.25,0.44-0.42,0.61c-0.17,0.17-0.37,0.29-0.61,0.39c-0.23,0.09-0.49,0.13-0.77,0.13
		c-0.38,0-0.71-0.07-1-0.21c-0.29-0.14-0.52-0.32-0.71-0.55c-0.19-0.23-0.33-0.5-0.43-0.8c-0.1-0.3-0.14-0.62-0.14-0.96
		c0-0.33,0.05-0.65,0.14-0.95c0.1-0.3,0.24-0.57,0.43-0.8c0.19-0.23,0.43-0.42,0.71-0.56c0.29-0.14,0.62-0.21,1-0.21
		c0.23,0,0.46,0.03,0.67,0.1c0.22,0.07,0.42,0.17,0.6,0.3c0.18,0.13,0.33,0.3,0.45,0.49c0.12,0.19,0.2,0.42,0.23,0.67h-0.46
		C107.65,36.67,107.58,36.51,107.49,36.36"/>
</g>
<rect x="110.65" y="35.4" class="st0" width="0.46" height="4.83"/>
<polygon class="st0" points="117.15,35.4 117.15,35.79 114.27,35.79 114.27,37.53 116.96,37.53 116.96,37.93 114.27,37.93 
	114.27,39.84 117.18,39.84 117.18,40.23 113.81,40.23 113.81,35.4 "/>
<polygon class="st0" points="120.03,35.4 122.84,39.49 122.85,39.49 122.85,35.4 123.32,35.4 123.32,40.23 122.8,40.23 
	119.98,36.14 119.97,36.14 119.97,40.23 119.51,40.23 119.51,35.4 "/>
<g>
	<path class="st0" d="M129.31,36.36c-0.09-0.15-0.21-0.27-0.34-0.37s-0.28-0.17-0.44-0.23c-0.16-0.05-0.33-0.08-0.5-0.08
		c-0.32,0-0.6,0.06-0.83,0.18c-0.23,0.12-0.42,0.28-0.57,0.48c-0.15,0.2-0.26,0.43-0.32,0.68c-0.07,0.25-0.1,0.51-0.1,0.78
		c0,0.26,0.04,0.52,0.1,0.78c0.07,0.26,0.18,0.48,0.32,0.68c0.15,0.2,0.34,0.36,0.57,0.48s0.51,0.18,0.83,0.18
		c0.23,0,0.43-0.04,0.61-0.12c0.18-0.08,0.34-0.19,0.47-0.33c0.13-0.14,0.24-0.3,0.32-0.49c0.08-0.19,0.13-0.39,0.15-0.61h0.46
		c-0.03,0.3-0.1,0.57-0.21,0.81c-0.11,0.24-0.25,0.44-0.42,0.61c-0.17,0.17-0.37,0.29-0.61,0.39c-0.23,0.09-0.49,0.13-0.77,0.13
		c-0.38,0-0.71-0.07-1-0.21c-0.29-0.14-0.52-0.32-0.71-0.55c-0.19-0.23-0.33-0.5-0.43-0.8c-0.1-0.3-0.14-0.62-0.14-0.96
		c0-0.33,0.05-0.65,0.14-0.95c0.09-0.3,0.24-0.57,0.43-0.8c0.19-0.23,0.43-0.42,0.71-0.56c0.29-0.14,0.62-0.21,1-0.21
		c0.23,0,0.46,0.03,0.67,0.1c0.22,0.07,0.42,0.17,0.6,0.3c0.18,0.13,0.33,0.3,0.45,0.49s0.2,0.42,0.23,0.67h-0.46
		C129.47,36.67,129.4,36.51,129.31,36.36"/>
</g>
<polygon class="st0" points="135.77,35.4 135.77,35.79 132.9,35.79 132.9,37.53 135.59,37.53 135.59,37.93 132.9,37.93 132.9,39.84 
	135.81,39.84 135.81,40.23 132.43,40.23 132.43,35.4 "/>
</svg>
