<?xml version="1.0" encoding="UTF-8" standalone="no"?><!DOCTYPE svg PUBLIC "-//W3C//DTD SVG 1.1//EN" "http://www.w3.org/Graphics/SVG/1.1/DTD/svg11.dtd"><svg width="100%" height="100%" viewBox="0 0 237 61" version="1.1" xmlns="http://www.w3.org/2000/svg" xmlns:xlink="http://www.w3.org/1999/xlink" xml:space="preserve" xmlns:serif="http://www.serif.com/" style="fill-rule:evenodd;clip-rule:evenodd;stroke-linejoin:round;stroke-miterlimit:2;"><rect id="Artboard1" x="0" y="0" width="236.52" height="60.242" style="fill:none;"/><g id="Layer-1" serif:id="Layer 1"><path d="M11.241,7.502l0.09,0c1.943,-2.575 4.337,-3.659 7.319,-3.659c3.342,0 6.234,1.354 7.905,4.427c1.582,-2.891 4.698,-4.427 7.861,-4.427c5.872,0 7.906,3.839 7.906,9.171l-0,14.771l-8.223,0l-0,-11.068c-0,-2.395 0.091,-6.324 -3.387,-6.324c-3.795,0 -3.93,3.568 -3.93,6.324l-0,11.068l-8.223,0l-0,-11.068c-0,-2.574 -0,-6.505 -3.659,-6.505c-3.659,0 -3.659,3.931 -3.659,6.505l-0,11.068l-8.222,0l-0,-23.175l8.222,0l-0,2.892Z" style="fill:#c4151c;fill-rule:nonzero;"/><path d="M63.872,12.833c-0.406,-2.213 -2.439,-3.658 -4.653,-3.658c-2.394,-0 -4.382,1.263 -4.879,3.658l9.532,-0Zm7.635,4.744l-17.302,-0c0,3.342 1.762,5.15 5.149,5.15c1.762,-0 3.028,-0.587 3.931,-2.124l7.906,-0c-1.311,5.466 -6.505,7.951 -11.791,7.951c-7.68,-0 -13.417,-4.336 -13.417,-12.332c0,-7.725 5.285,-12.378 12.829,-12.378c8.042,-0 12.695,4.968 12.695,12.874l0,0.859Z" style="fill:#c4151c;fill-rule:nonzero;"/><path d="M83.48,7.592l0.09,0c1.897,-2.801 4.202,-3.749 7.409,-3.749c6.234,0 8.719,3.931 8.719,9.622l-0,14.32l-8.222,0l-0,-11.293c-0,-2.214 0.362,-6.099 -3.704,-6.099c-3.344,0 -4.292,2.484 -4.292,5.375l-0,12.017l-8.222,0l-0,-23.174l8.222,0l-0,2.981Z" style="fill:#c4151c;fill-rule:nonzero;"/><path d="M126.262,20.965l-0,6.82l-23.491,0l10.887,-16.353l-9.441,0l-0,-6.821l23.13,0l-10.842,16.354l9.757,0Z" style="fill:#c4151c;fill-rule:nonzero;"/><path d="M146.547,12.833c-0.406,-2.213 -2.439,-3.658 -4.653,-3.658c-2.395,-0 -4.382,1.263 -4.879,3.658l9.532,-0Zm7.635,4.744l-17.303,-0c-0,3.342 1.762,5.15 5.15,5.15c1.762,-0 3.027,-0.587 3.93,-2.124l7.906,-0c-1.31,5.466 -6.505,7.951 -11.791,7.951c-7.679,-0 -13.416,-4.336 -13.416,-12.332c-0,-7.725 5.285,-12.378 12.829,-12.378c8.041,-0 12.695,4.968 12.695,12.874l-0,0.859Z" style="fill:#c4151c;fill-rule:nonzero;"/><path d="M166.154,8.406l0.09,-0c1.582,-2.847 4.292,-4.11 7.5,-4.11l1.58,-0l0,7.904c-1.129,-0.632 -2.213,-0.768 -3.479,-0.768c-4.562,-0 -5.691,3.028 -5.691,7.002l0,9.352l-8.223,-0l0,-23.175l8.223,-0l0,3.795Z" style="fill:#c4151c;fill-rule:nonzero;"/><path d="M186.619,7.592l0.09,0c1.897,-2.801 4.201,-3.749 7.408,-3.749c6.234,0 8.72,3.931 8.72,9.622l0,14.32l-8.222,0l0,-11.293c0,-2.214 0.361,-6.099 -3.705,-6.099c-3.343,0 -4.291,2.484 -4.291,5.375l0,12.017l-8.223,0l0,-23.174l8.223,0l0,2.981Z" style="fill:#c4151c;fill-rule:nonzero;"/><path d="M215.08,16.221c0,2.936 1.943,5.195 5.287,5.195c3.342,0 5.285,-2.259 5.285,-5.195c0,-2.846 -1.943,-5.24 -5.285,-5.24c-3.344,0 -5.287,2.394 -5.287,5.24m18.523,11.564l-8.222,0l0,-2.575l-0.09,0c-1.445,2.304 -4.291,3.343 -7.002,3.343c-6.867,0 -11.701,-5.736 -11.701,-12.377c0,-6.642 4.744,-12.333 11.609,-12.333c2.666,0 5.467,0.993 7.184,3.026l0,-2.258l8.222,0l0,23.174Z" style="fill:#c4151c;fill-rule:nonzero;"/><path d="M9.753,47.86c0,-1.107 -0.253,-1.979 -0.758,-2.612c-0.506,-0.634 -1.203,-0.952 -2.091,-0.952c-0.915,-0 -1.631,0.307 -2.15,0.922c-0.518,0.615 -0.777,1.46 -0.777,2.537c0,1.093 0.278,1.968 0.836,2.621c0.556,0.654 1.293,0.98 2.207,0.98c0.862,-0 1.534,-0.307 2.013,-0.922c0.48,-0.615 0.72,-1.472 0.72,-2.574m-6.945,8.539l0,-12.875l1.15,-0l0,1.603c0.328,-0.619 0.756,-1.093 1.284,-1.425c0.528,-0.331 1.121,-0.497 1.778,-0.497c1.204,-0 2.174,0.423 2.912,1.269c0.737,0.847 1.106,1.97 1.106,3.366c0,1.405 -0.361,2.527 -1.083,3.367c-0.721,0.841 -1.68,1.26 -2.877,1.26c-0.69,-0 -1.298,-0.166 -1.826,-0.498c-0.528,-0.331 -0.96,-0.818 -1.294,-1.463l0,5.893l-1.15,-0Z" style="fill:#c4151c;fill-rule:nonzero;"/><path d="M20.606,51.356c0.94,-0 1.737,-0.339 2.39,-1.02c0.654,-0.677 0.981,-1.51 0.981,-2.496c0,-0.998 -0.326,-1.834 -0.975,-2.51c-0.651,-0.677 -1.449,-1.015 -2.396,-1.015c-0.94,-0 -1.735,0.338 -2.386,1.015c-0.65,0.676 -0.975,1.512 -0.975,2.51c0,0.986 0.325,1.819 0.975,2.496c0.651,0.681 1.446,1.02 2.386,1.02m-0.039,1.111c-0.611,-0 -1.197,-0.121 -1.758,-0.361c-0.559,-0.242 -1.068,-0.588 -1.525,-1.039c-0.432,-0.426 -0.761,-0.914 -0.986,-1.469c-0.225,-0.553 -0.338,-1.145 -0.338,-1.777c0,-0.624 0.116,-1.217 0.348,-1.777c0.232,-0.559 0.564,-1.055 0.994,-1.487c0.439,-0.438 0.938,-0.773 1.498,-1.005c0.56,-0.231 1.149,-0.347 1.767,-0.347c0.631,-0 1.232,0.116 1.802,0.347c0.57,0.232 1.077,0.567 1.522,1.005c0.444,0.438 0.783,0.937 1.018,1.496c0.235,0.561 0.352,1.15 0.352,1.768c0,0.619 -0.115,1.207 -0.347,1.763c-0.232,0.557 -0.567,1.051 -1.005,1.483c-0.45,0.451 -0.964,0.797 -1.54,1.039c-0.577,0.24 -1.177,0.361 -1.802,0.361" style="fill:#c4151c;fill-rule:nonzero;"/><rect x="30.958" y="37.12" width="1.227" height="14.971" style="fill:#c4151c;"/><path d="M38.672,43.524l1.227,-0l-0,8.566l-1.227,-0l-0,-8.566Zm-0.299,-3.342c-0,-0.251 0.089,-0.466 0.27,-0.642c0.18,-0.178 0.396,-0.266 0.647,-0.266c0.251,-0 0.469,0.088 0.652,0.266c0.183,0.176 0.276,0.391 0.276,0.642c-0,0.256 -0.089,0.473 -0.266,0.647c-0.178,0.174 -0.398,0.261 -0.662,0.261c-0.257,-0 -0.475,-0.087 -0.652,-0.261c-0.177,-0.174 -0.265,-0.391 -0.265,-0.647" style="fill:#c4151c;fill-rule:nonzero;"/><path d="M45.333,50.564l1.131,-0.646c0.186,0.476 0.456,0.834 0.811,1.077c0.354,0.241 0.788,0.361 1.304,0.361c0.502,-0 0.901,-0.127 1.198,-0.381c0.295,-0.255 0.444,-0.594 0.444,-1.019c-0,-0.657 -0.583,-1.213 -1.749,-1.67c-0.122,-0.045 -0.219,-0.084 -0.29,-0.118c-0.901,-0.353 -1.532,-0.718 -1.892,-1.095c-0.361,-0.377 -0.541,-0.842 -0.541,-1.396c-0,-0.727 0.257,-1.325 0.772,-1.792c0.515,-0.467 1.182,-0.7 2,-0.7c0.695,-0 1.288,0.151 1.777,0.454c0.489,0.303 0.847,0.735 1.072,1.294l-1.091,0.61c-0.136,-0.406 -0.361,-0.716 -0.676,-0.928c-0.316,-0.213 -0.703,-0.32 -1.159,-0.32c-0.413,-0 -0.753,0.122 -1.02,0.364c-0.267,0.241 -0.401,0.541 -0.401,0.902c-0,0.355 0.133,0.647 0.396,0.879c0.264,0.232 0.812,0.486 1.643,0.763c0.939,0.329 1.572,0.686 1.897,1.073c0.326,0.386 0.488,0.92 0.488,1.603c-0,0.786 -0.28,1.413 -0.84,1.883c-0.56,0.47 -1.314,0.705 -2.26,0.705c-0.728,-0 -1.354,-0.166 -1.879,-0.498c-0.525,-0.331 -0.903,-0.799 -1.135,-1.405" style="fill:#c4151c;fill-rule:nonzero;"/><path d="M57.026,52.09l0,-14.971l1.13,0l0,7.727c0.348,-0.547 0.774,-0.957 1.28,-1.232c0.506,-0.273 1.086,-0.41 1.743,-0.41c0.972,0 1.729,0.271 2.27,0.812c0.541,0.541 0.811,1.295 0.811,2.26l0,5.814l-1.207,0l0,-5.283c0,-0.857 -0.178,-1.492 -0.536,-1.907c-0.357,-0.415 -0.909,-0.623 -1.657,-0.623c-0.907,0 -1.576,0.268 -2.003,0.806c-0.429,0.538 -0.643,1.382 -0.643,2.535l0,4.472l-1.188,0Z" style="fill:#c4151c;fill-rule:nonzero;"/><path d="M70.575,43.524l1.227,-0l-0,8.566l-1.227,-0l-0,-8.566Zm-0.3,-3.342c-0,-0.251 0.091,-0.466 0.271,-0.642c0.18,-0.178 0.396,-0.266 0.647,-0.266c0.251,-0 0.468,0.088 0.652,0.266c0.184,0.176 0.275,0.391 0.275,0.642c-0,0.256 -0.089,0.473 -0.265,0.647c-0.177,0.174 -0.398,0.261 -0.662,0.261c-0.258,-0 -0.475,-0.087 -0.652,-0.261c-0.177,-0.174 -0.266,-0.391 -0.266,-0.647" style="fill:#c4151c;fill-rule:nonzero;"/><path d="M78.212,52.09l0,-8.566l1.129,0l0,1.322c0.348,-0.547 0.775,-0.957 1.28,-1.232c0.506,-0.273 1.087,-0.41 1.744,-0.41c0.972,0 1.729,0.271 2.269,0.812c0.542,0.541 0.812,1.295 0.812,2.26l0,5.814l-1.207,0l0,-5.283c0,-0.857 -0.179,-1.492 -0.537,-1.907c-0.357,-0.415 -0.909,-0.623 -1.656,-0.623c-0.908,0 -1.576,0.268 -2.004,0.806c-0.429,0.538 -0.642,1.382 -0.642,2.535l0,4.472l-1.188,0Z" style="fill:#c4151c;fill-rule:nonzero;"/><path d="M95.121,44.295c-0.888,0 -1.588,0.318 -2.101,0.952c-0.512,0.634 -0.767,1.505 -0.767,2.612c-0,1.102 0.242,1.959 0.729,2.575c0.486,0.615 1.161,0.922 2.023,0.922c0.914,0 1.647,-0.325 2.198,-0.975c0.55,-0.65 0.825,-1.526 0.825,-2.627c-0,-1.082 -0.257,-1.93 -0.772,-2.541c-0.516,-0.611 -1.227,-0.918 -2.135,-0.918m4.096,-0.771l-0,7.079c-0,1.128 -0.031,1.985 -0.093,2.579c-0.061,0.592 -0.162,1.033 -0.303,1.323c-0.297,0.638 -0.75,1.112 -1.362,1.425c-0.612,0.312 -1.385,0.469 -2.318,0.469c-1.14,0 -2.027,-0.221 -2.661,-0.663c-0.635,-0.441 -1.02,-1.109 -1.154,-2.003l1.487,0c0.096,0.527 0.35,0.927 0.758,1.197c0.408,0.27 0.965,0.406 1.666,0.406c0.528,0 1.003,-0.094 1.425,-0.281c0.421,-0.187 0.739,-0.444 0.951,-0.773c0.142,-0.212 0.243,-0.459 0.304,-0.739c0.061,-0.279 0.092,-0.713 0.092,-1.299l-0,-1.738c-0.263,0.611 -0.668,1.092 -1.212,1.439c-0.544,0.348 -1.168,0.522 -1.869,0.522c-1.204,0 -2.165,-0.419 -2.883,-1.256c-0.718,-0.836 -1.077,-1.961 -1.077,-3.371c-0,-1.397 0.367,-2.52 1.101,-3.366c0.734,-0.847 1.706,-1.27 2.917,-1.27c0.676,0 1.289,0.176 1.84,0.527c0.55,0.35 0.945,0.816 1.183,1.395l-0,-1.602l1.208,0Z" style="fill:#c4151c;fill-rule:nonzero;"/><path d="M121.077,45.088c-0.399,-0.277 -0.824,-0.485 -1.274,-0.623c-0.452,-0.139 -0.915,-0.208 -1.392,-0.208c-1.062,0 -1.909,0.34 -2.54,1.019c-0.631,0.679 -0.946,1.585 -0.946,2.718c0,1.005 0.326,1.832 0.98,2.484c0.653,0.65 1.489,0.975 2.506,0.975c0.464,0 0.932,-0.081 1.405,-0.242c0.474,-0.161 0.939,-0.402 1.397,-0.725l0,1.304c-0.419,0.239 -0.883,0.417 -1.391,0.536c-0.509,0.119 -1.053,0.18 -1.633,0.18c-1.307,0 -2.379,-0.431 -3.216,-1.29c-0.837,-0.858 -1.255,-1.959 -1.255,-3.298c0,-1.398 0.435,-2.532 1.308,-3.405c0.872,-0.872 2.007,-1.309 3.405,-1.309c0.515,0 0.999,0.05 1.454,0.15c0.454,0.099 0.857,0.244 1.212,0.429l-0.02,1.305Z" style="fill:#c4151c;fill-rule:nonzero;"/><path d="M130.53,51.356c0.94,-0 1.737,-0.339 2.391,-1.02c0.653,-0.677 0.98,-1.51 0.98,-2.496c0,-0.998 -0.325,-1.834 -0.975,-2.51c-0.651,-0.677 -1.45,-1.015 -2.396,-1.015c-0.94,-0 -1.735,0.338 -2.386,1.015c-0.65,0.676 -0.975,1.512 -0.975,2.51c0,0.986 0.325,1.819 0.975,2.496c0.651,0.681 1.446,1.02 2.386,1.02m-0.038,1.111c-0.612,-0 -1.198,-0.121 -1.758,-0.361c-0.56,-0.242 -1.07,-0.588 -1.526,-1.039c-0.432,-0.426 -0.76,-0.914 -0.986,-1.469c-0.225,-0.553 -0.338,-1.145 -0.338,-1.777c0,-0.624 0.116,-1.217 0.348,-1.777c0.233,-0.559 0.564,-1.055 0.994,-1.487c0.438,-0.438 0.938,-0.773 1.498,-1.005c0.56,-0.231 1.149,-0.347 1.768,-0.347c0.631,-0 1.23,0.116 1.801,0.347c0.57,0.232 1.077,0.567 1.521,1.005c0.444,0.438 0.784,0.937 1.02,1.496c0.234,0.561 0.351,1.15 0.351,1.768c0,0.619 -0.115,1.207 -0.347,1.763c-0.232,0.557 -0.567,1.051 -1.004,1.483c-0.451,0.451 -0.965,0.797 -1.541,1.039c-0.576,0.24 -1.176,0.361 -1.801,0.361" style="fill:#c4151c;fill-rule:nonzero;"/><path d="M141.992,52.09l-1.188,0l0,-8.566l1.188,0l0,1.341c0.283,-0.541 0.656,-0.953 1.121,-1.236c0.463,-0.283 0.998,-0.425 1.603,-0.425c0.624,0 1.157,0.144 1.598,0.43c0.442,0.286 0.781,0.707 1.019,1.261c0.341,-0.567 0.761,-0.991 1.257,-1.27c0.495,-0.281 1.072,-0.421 1.728,-0.421c0.907,0 1.622,0.275 2.145,0.826c0.521,0.55 0.781,1.306 0.781,2.265l0,5.795l-1.188,0l0,-5.322c0,-0.837 -0.171,-1.468 -0.517,-1.893c-0.344,-0.425 -0.858,-0.638 -1.54,-0.638c-0.818,0 -1.418,0.267 -1.802,0.802c-0.383,0.535 -0.574,1.381 -0.574,2.541l0,4.51l-1.178,0l0,-5.322c0,-0.875 -0.164,-1.516 -0.493,-1.922c-0.328,-0.405 -0.837,-0.609 -1.526,-0.609c-0.836,0 -1.452,0.271 -1.844,0.812c-0.394,0.541 -0.59,1.385 -0.59,2.531l0,4.51Z" style="fill:#c4151c;fill-rule:nonzero;"/><path d="M166.523,47.86c-0,-1.107 -0.253,-1.979 -0.759,-2.612c-0.506,-0.634 -1.203,-0.952 -2.091,-0.952c-0.915,-0 -1.63,0.307 -2.149,0.922c-0.518,0.615 -0.777,1.46 -0.777,2.537c-0,1.093 0.279,1.968 0.836,2.621c0.556,0.654 1.292,0.98 2.207,0.98c0.863,-0 1.533,-0.307 2.013,-0.922c0.48,-0.615 0.72,-1.472 0.72,-2.574m-6.944,8.539l-0,-12.875l1.148,-0l-0,1.603c0.328,-0.619 0.756,-1.093 1.285,-1.425c0.528,-0.331 1.12,-0.497 1.778,-0.497c1.204,-0 2.173,0.423 2.912,1.269c0.736,0.847 1.105,1.97 1.105,3.366c-0,1.405 -0.361,2.527 -1.082,3.367c-0.721,0.841 -1.68,1.26 -2.878,1.26c-0.689,-0 -1.298,-0.166 -1.825,-0.498c-0.528,-0.331 -0.96,-0.818 -1.295,-1.463l-0,5.893l-1.148,-0Z" style="fill:#c4151c;fill-rule:nonzero;"/><path d="M177.375,51.356c0.94,-0 1.736,-0.339 2.391,-1.02c0.653,-0.677 0.98,-1.51 0.98,-2.496c0,-0.998 -0.325,-1.834 -0.976,-2.51c-0.65,-0.677 -1.448,-1.015 -2.395,-1.015c-0.939,-0 -1.735,0.338 -2.385,1.015c-0.651,0.676 -0.976,1.512 -0.976,2.51c0,0.986 0.325,1.819 0.976,2.496c0.65,0.681 1.446,1.02 2.385,1.02m-0.038,1.111c-0.612,-0 -1.198,-0.121 -1.759,-0.361c-0.559,-0.242 -1.068,-0.588 -1.525,-1.039c-0.432,-0.426 -0.76,-0.914 -0.986,-1.469c-0.225,-0.553 -0.338,-1.145 -0.338,-1.777c0,-0.624 0.117,-1.217 0.348,-1.777c0.232,-0.559 0.564,-1.055 0.995,-1.487c0.438,-0.438 0.936,-0.773 1.497,-1.005c0.56,-0.231 1.15,-0.347 1.768,-0.347c0.631,-0 1.231,0.116 1.802,0.347c0.568,0.232 1.076,0.567 1.52,1.005c0.445,0.438 0.784,0.937 1.019,1.496c0.234,0.561 0.352,1.15 0.352,1.768c0,0.619 -0.116,1.207 -0.347,1.763c-0.232,0.557 -0.567,1.051 -1.004,1.483c-0.451,0.451 -0.965,0.797 -1.54,1.039c-0.577,0.24 -1.178,0.361 -1.802,0.361" style="fill:#c4151c;fill-rule:nonzero;"/><path d="M188.836,43.524l0,4.278c0,1.301 0.186,2.218 0.557,2.753c0.37,0.534 0.996,0.801 1.879,0.801c0.875,-0 1.502,-0.269 1.882,-0.811c0.38,-0.541 0.571,-1.455 0.571,-2.743l0,-4.278l1.177,-0l0,4.887c0,1.332 -0.305,2.342 -0.917,3.027c-0.612,0.687 -1.51,1.029 -2.695,1.029c-1.191,-0 -2.096,-0.342 -2.714,-1.029c-0.618,-0.685 -0.927,-1.695 -0.927,-3.027l0,-4.887l1.187,-0Z" style="fill:#c4151c;fill-rule:nonzero;"/><path d="M201.236,52.09l0,-8.566l1.129,0l0,1.322c0.348,-0.547 0.775,-0.957 1.281,-1.232c0.504,-0.273 1.086,-0.41 1.742,-0.41c0.973,0 1.729,0.271 2.271,0.812c0.54,0.541 0.811,1.295 0.811,2.26l0,5.814l-1.208,0l0,-5.283c0,-0.857 -0.178,-1.492 -0.536,-1.907c-0.357,-0.415 -0.909,-0.623 -1.656,-0.623c-0.908,0 -1.576,0.268 -2.004,0.806c-0.429,0.538 -0.642,1.382 -0.642,2.535l0,4.472l-1.188,0Z" style="fill:#c4151c;fill-rule:nonzero;"/><path d="M215.296,47.899c-0,1.107 0.249,1.961 0.749,2.56c0.498,0.598 1.211,0.897 2.139,0.897c0.895,-0 1.6,-0.326 2.115,-0.98c0.516,-0.653 0.773,-1.553 0.773,-2.7c-0,-1.048 -0.255,-1.875 -0.763,-2.476c-0.509,-0.603 -1.211,-0.905 -2.106,-0.905c-0.894,-0 -1.603,0.321 -2.125,0.962c-0.521,0.64 -0.782,1.521 -0.782,2.642m5.757,4.191l-0,-1.564c-0.283,0.637 -0.68,1.121 -1.189,1.449c-0.508,0.328 -1.107,0.492 -1.796,0.492c-1.23,-0 -2.22,-0.422 -2.97,-1.265c-0.75,-0.844 -1.125,-1.957 -1.125,-3.342c-0,-1.371 0.37,-2.49 1.111,-3.356c0.74,-0.866 1.695,-1.299 2.868,-1.299c0.728,-0 1.354,0.159 1.878,0.478c0.526,0.318 0.933,0.786 1.223,1.405l-0,-7.968l1.207,-0l-0,14.97l-1.207,-0Z" style="fill:#c4151c;fill-rule:nonzero;"/><path d="M227.598,50.564l1.131,-0.646c0.186,0.476 0.457,0.834 0.81,1.077c0.355,0.241 0.789,0.361 1.305,0.361c0.502,-0 0.9,-0.127 1.197,-0.381c0.296,-0.255 0.444,-0.594 0.444,-1.019c-0,-0.657 -0.582,-1.213 -1.748,-1.67c-0.122,-0.045 -0.219,-0.084 -0.289,-0.118c-0.902,-0.353 -1.533,-0.718 -1.893,-1.095c-0.361,-0.377 -0.541,-0.842 -0.541,-1.396c-0,-0.727 0.258,-1.325 0.772,-1.792c0.515,-0.467 1.181,-0.7 2,-0.7c0.695,-0 1.287,0.151 1.777,0.454c0.489,0.303 0.847,0.735 1.072,1.294l-1.092,0.61c-0.134,-0.406 -0.361,-0.716 -0.675,-0.928c-0.317,-0.213 -0.703,-0.32 -1.16,-0.32c-0.412,-0 -0.752,0.122 -1.018,0.364c-0.268,0.241 -0.402,0.541 -0.402,0.902c-0,0.355 0.132,0.647 0.396,0.879c0.265,0.232 0.812,0.486 1.643,0.763c0.939,0.329 1.572,0.686 1.898,1.073c0.324,0.386 0.487,0.92 0.487,1.603c-0,0.786 -0.28,1.413 -0.841,1.883c-0.56,0.47 -1.313,0.705 -2.259,0.705c-0.729,-0 -1.354,-0.166 -1.879,-0.498c-0.526,-0.331 -0.903,-0.799 -1.135,-1.405" style="fill:#c4151c;fill-rule:nonzero;"/></g></svg>