<?xml version="1.0" encoding="UTF-8" standalone="no"?><!DOCTYPE svg PUBLIC "-//W3C//DTD SVG 1.1//EN" "http://www.w3.org/Graphics/SVG/1.1/DTD/svg11.dtd"><svg width="100%" height="100%" viewBox="0 0 394 143" version="1.1" xmlns="http://www.w3.org/2000/svg" xmlns:xlink="http://www.w3.org/1999/xlink" xml:space="preserve" xmlns:serif="http://www.serif.com/" style="fill-rule:evenodd;clip-rule:evenodd;stroke-linejoin:round;stroke-miterlimit:2;"><rect id="Artboard1" x="0" y="0" width="393.505" height="142.741" style="fill:none;"/><rect x="6.742" y="92.108" width="122.841" height="13.431"/><rect x="129.573" y="92.108" width="122.85" height="13.431" style="fill:#e30613;"/><rect x="252.405" y="92.108" width="122.841" height="13.431" style="fill:#ffed00;"/><path d="M347.817,40.616l24.609,-35.65l-26.219,0l-11.394,20.582l-11.606,-20.582l-27.719,0l25.25,35.429l-19.253,28l-23.39,-63.429l-23.107,0l-28.265,75.744l23.75,0l3.44,-10.819l24.391,0l3.219,10.819l38.569,0l13.537,-22.594l13.113,22.594l28.481,0l-27.406,-40.094Zm-74.241,13.047l-14.5,0l7.419,-23.347l0.206,0l6.875,23.347Zm-70.016,27.047l23.007,0l-0,-75.744l-22.354,0l0,40.525l-0.221,0l-22.354,-40.525l-24.175,0l0,75.744l22.35,0l0,-41.372l0.219,0l23.528,41.372Zm-51.015,-37.865c-0,-23.135 -15.578,-39.691 -38.9,-39.691c-23.319,-0 -38.894,16.556 -38.894,39.691c-0,23.125 15.575,39.671 38.894,39.671c23.322,0 38.9,-16.546 38.9,-39.671m-23.641,-0c0,16.868 -9.241,20.79 -15.259,20.79c-6.016,0 -15.257,-3.922 -15.257,-20.79c0,-16.875 9.241,-20.804 15.257,-20.804c6.018,0 15.259,3.929 15.259,20.804m-99.822,-17.832c0,-4.247 5.266,-5.097 8.485,-5.097c2.371,0 5.056,0.532 6.99,1.919c1.935,1.272 3.225,3.178 2.791,6.047l22.353,0c-0.641,-18.462 -15.359,-24.728 -32.022,-24.728c-15.797,-0 -30.947,7.537 -30.947,25.047c0,15.278 13.863,18.556 26.003,21.956c13.222,3.716 16.547,4.772 16.547,8.694c0,5.631 -5.903,6.909 -9.778,6.909c-4.406,0 -9.562,-0.959 -11.281,-5.525c-0.531,-1.384 -0.863,-3.078 -0.863,-4.981l-23.64,-0c0.218,24.187 25.04,27.262 33.743,27.262c17.088,0 35.463,-6.362 35.463,-26.103c-0,-13.893 -10.744,-18.881 -21.597,-21.85c-10.853,-2.962 -21.812,-4.14 -22.247,-9.55" style="fill:#e30613;fill-rule:nonzero;"/><path d="M379.765,9.538l2.137,0c1.11,0 2.3,0.213 2.3,1.6c0,1.65 -1.309,1.719 -2.744,1.719l-1.693,0l-0,-3.319Zm-1.628,9.125l1.628,0l-0,-4.493l1.722,-0l2.834,4.493l1.753,0l-2.991,-4.615c1.55,-0.169 2.75,-0.957 2.75,-2.841c0,-2.003 -1.175,-2.987 -3.656,-2.987l-4.04,-0l-0,10.443Zm-3.885,-5.259c0,-4.269 3.194,-7.569 7.369,-7.569c4.141,0 7.334,3.3 7.334,7.569c0,4.366 -3.193,7.666 -7.334,7.666c-4.175,-0 -7.369,-3.3 -7.369,-7.666m-1.631,-0c-0,5.134 4.112,8.978 9,8.978c4.875,0 8.956,-3.844 8.956,-8.978c0,-5.031 -4.081,-8.878 -8.956,-8.878c-4.888,-0 -9,3.847 -9,8.878" style="fill-rule:nonzero;"/><path d="M9.317,116.239l-1.994,22.763l4.831,-0l0.666,-16.394l0.059,0l0,0.422l0.753,5.072l2.206,10.9l3.469,-0l1.935,-10.778l0.725,-5.616l0.059,0l1.087,16.394l4.619,-0l-2.387,-22.763l-6.038,0l-1.809,13.435l-0.06,-0l-2.206,-13.435l-5.915,0Zm26.293,0l-5.284,22.763l4.469,-0l0.815,-3.835l4.557,0l0.846,3.835l4.8,-0l-5.465,-22.763l-4.738,0Zm3.894,15.366l-3.172,-0l0.969,-6.069l0.481,-3.44l0.06,-0l0.515,3.44l1.147,6.069Zm13.794,7.397c7.094,-0 9.6,-4.71 9.6,-11.2c-0,-12.71 -9.419,-11.563 -10.203,-11.563l-3.41,0l0,22.763l4.013,-0Zm0.484,-4.047l0,-14.672c3.713,0 4.619,4.591 4.619,7.488c-0,2.837 -0.997,7.365 -4.619,7.184m13.163,-18.716l-0,22.763l9.115,-0l0,-4.228l-4.618,-0l-0,-5.132l4.015,0l0,-4.225l-4.015,0l-0,-4.953l4.559,0l-0,-4.225l-9.056,0Zm23.522,22.763l4.496,-0l0,-22.763l-4.496,0l-0,22.763Zm9.356,-22.763l-0,22.763l4.497,-0l-0,-10.447l-0.028,-0.934l-0.213,-2.294l0.063,-0.063l5.553,13.738l4.256,-0l-0,-22.763l-4.497,0l0,10.235c0,1.175 0.091,2.353 0.363,3.44l-0.063,0.06l-5.612,-13.735l-4.319,0Zm36.231,10.082l0,4.228l2.869,-0c-0,1.568 -0.363,4.647 -2.656,4.647c-3.322,-0 -3.472,-5.222 -3.472,-7.575c-0,-2.144 0.3,-7.76 3.35,-7.579c1.722,0 2.084,1.782 2.293,2.929l4.379,-1.691c-0.966,-3.228 -3.232,-5.403 -6.704,-5.403c-6.428,-0 -8.118,6.612 -8.118,11.862c-0,5.044 1.99,11.622 8.118,11.622c6.129,0 7.307,-6.428 7.307,-11.259l-0,-1.781l-7.366,-0Zm11.409,-10.082l0,22.763l9.119,-0l0,-4.228l-4.619,-0l0,-5.132l4.013,0l-0,-4.225l-4.013,0l0,-4.953l4.557,0l-0,-4.225l-9.057,0Zm17.994,22.763l0,-10.506l0.06,-0l3.953,10.506l4.74,-0l-3.953,-10.356c2.231,-1.238 3.228,-3.382 3.228,-5.885c0,-6.219 -5.131,-6.522 -8,-6.522l-4.528,0l0,22.763l4.5,-0Zm0,-19.05l0.603,-0c2.263,-0.122 3.05,1.209 3.05,2.837c0,1.872 -0.815,3.26 -2.868,3.26l-0.785,-0.028l0,-6.069Zm14.247,-3.713l-1.991,22.763l4.829,-0l0.665,-16.394l0.06,0l-0,0.422l0.756,5.072l2.203,10.9l3.472,-0l1.931,-10.778l0.725,-5.616l0.059,0l1.088,16.394l4.619,-0l-2.385,-22.763l-6.037,0l-1.813,13.435l-0.059,-0l-2.206,-13.435l-5.916,0Zm26.294,0l-5.285,22.763l4.469,-0l0.816,-3.835l4.556,0l0.847,3.835l4.8,-0l-5.466,-22.763l-4.737,0Zm3.894,15.366l-3.169,-0l0.965,-6.069l0.482,-3.44l0.062,-0l0.513,3.44l1.147,6.069Zm9.781,-15.366l-0,22.763l4.497,-0l-0,-10.447l-0.032,-0.934l-0.209,-2.294l0.059,-0.063l5.557,13.738l4.256,-0l-0,-22.763l-4.5,0l-0,10.235c-0,1.175 0.091,2.353 0.362,3.44l-0.059,0.06l-5.616,-13.735l-4.315,0Zm17.478,0l5.462,11.863l0,10.9l4.5,-0l0,-10.9l5.313,-11.863l-5.041,0l-2.025,5.616l-0.512,1.691l-0.06,-0l-0.331,-1.119l-2.356,-6.188l-4.95,0Z" style="fill-rule:nonzero;"/></svg>